<?xml version="1.0" encoding="UTF-8" standalone="no"?>
<svg
   xmlns:dc="http://purl.org/dc/elements/1.1/"
   xmlns:cc="http://creativecommons.org/ns#"
   xmlns:rdf="http://www.w3.org/1999/02/22-rdf-syntax-ns#"
   xmlns:svg="http://www.w3.org/2000/svg"
   xmlns="http://www.w3.org/2000/svg"
   xmlns:xlink="http://www.w3.org/1999/xlink"
   id="svg8"
   version="1.1"
   viewBox="0 0 176.38889 176.38889"
   height="176.38889mm"
   width="176.38889mm">
  <defs
     id="defs2">
    <pattern
       patternTransform="matrix(0,-0.35277777,-0.35277777,0,141.69924,-5557.1808)"
       id="pattern5001"
       xlink:href="#pattern4638" />
    <clipPath
       clipPathUnits="userSpaceOnUse"
       id="clipPath4530">
      <path
         d="M 200,0 H 0 v 200 h 200 z"
         id="path4528" />
    </clipPath>
    <pattern
       patternTransform="rotate(90,-8017.145,8370.955)"
       patternUnits="userSpaceOnUse"
       x="0"
       y="0"
       width="200"
       height="200"
       id="pattern4638">
      <path
         d="M 0,0 200,0 200,200 0,200 0,0 Z"
         style="fill:#e1d9a1;fill-opacity:1;fill-rule:nonzero;stroke:none"
         id="path4532" />
      <g
         id="g4636">
        <g
           clip-path="url(#clipPath4530)"
           id="g4634">
          <g
             transform="translate(51.8016,96.4533)"
             id="g4536">
            <path
               d="m 0,0 c -5.638,-1.812 -11.714,-2.23 -17.12,-4.649 -5.405,-2.419 -10.23,-7.823 -9.237,-13.662 1.265,-7.434 10.92,-11.311 11.892,-18.79 1.128,-8.683 -10.239,-15.847 -7.955,-24.3 1.148,-4.247 5.654,-6.927 10.045,-7.198 4.391,-0.271 8.665,1.392 12.617,3.325 3.952,1.932 7.81,4.185 12.081,5.24 10.259,2.535 20.755,-2.187 30.344,-6.629 9.588,-4.442 20.363,-8.803 30.426,-5.577 7.101,2.276 13.031,8.163 20.474,8.61 5.082,0.306 9.94,-2.032 14.273,-4.706 4.333,-2.675 8.498,-5.786 13.35,-7.328 4.853,-1.542 10.731,-1.169 14.293,2.47 3.748,3.829 3.709,10.406 0.662,14.815 -3.047,4.408 -8.486,6.746 -13.837,7.035 -4.229,0.228 -8.516,-0.676 -12.682,0.085 -4.167,0.762 -8.413,4.038 -8.146,8.266 0.119,1.886 1.117,3.626 1.287,5.509 0.442,4.879 -4.771,8.528 -9.634,9.122 -6.645,0.813 -13.159,-1.887 -19.321,-4.504 -6.162,-2.616 -12.715,-5.261 -19.345,-4.334 -6.63,0.928 -13.04,6.898 -11.891,13.493 0.64,3.672 3.371,6.611 6.24,8.99 2.869,2.379 6.055,4.491 8.215,7.529 2.159,3.038 3.045,7.39 0.913,10.447 C 54.846,7.702 47.932,6.656 43.147,4.117 40.236,2.573 36.68,0.646 33.913,2.438 31.692,3.876 31.352,7.057 32.04,9.612 c 0.689,2.554 2.146,4.861 2.738,7.44 C 35.901,21.94 33.42,27.429 29.01,29.816 19.515,34.957 11.832,26.163 11.916,17.146 11.998,8.213 9.475,3.046 0,0"
               style="fill:#232c25;fill-opacity:1;fill-rule:nonzero;stroke:none"
               id="path4534" />
          </g>
          <g
             transform="translate(40.8505,168.7112)"
             id="g4540">
            <path
               d="m 0,0 c -2.01,-0.642 -4.051,-1.526 -6.028,-2.044 -2.956,-0.776 -5.913,-0.7 -8.867,-0.131 0.493,-1.582 1.963,-2.843 2.892,-4.302 1.651,-2.592 1.488,-6.213 -0.389,-8.647 -1.878,-2.433 -5.338,-3.51 -8.265,-2.571 -7.504,2.407 -7.199,14 -13.618,18.572 -1.938,1.381 -4.293,1.962 -6.575,2.685 l 0,-41.243 c 2.989,0.447 6.043,1.077 8.931,0.922 5.788,-0.311 11.518,-1.559 16.977,-3.488 11.399,-4.029 21.605,-10.816 31.366,-17.95 2.286,-1.671 4.688,-3.421 7.495,-3.801 2.807,-0.379 6.096,1.172 6.587,3.962 0.392,2.228 -1.124,4.425 -3.046,5.619 -1.922,1.194 -4.2,1.631 -6.386,2.215 -4.715,1.259 -9.22,3.298 -13.277,6.007 -1.871,1.25 -3.728,2.746 -4.546,4.841 -0.818,2.095 -0.185,4.905 1.872,5.814 4.033,1.783 8.668,-4.697 12.406,-2.359 2.516,1.574 1.659,5.463 0.107,7.994 -1.553,2.53 -3.59,5.434 -2.468,8.182 1.12,2.741 4.706,3.419 7.655,3.145 2.949,-0.273 6.083,-1.06 8.755,0.216 2.378,1.136 3.841,3.931 3.418,6.533 -0.422,2.601 -2.693,4.79 -5.309,5.115 -5.053,0.629 -9.888,-4.945 -14.606,-3.028 -3.376,1.371 -4.438,5.859 -7.597,7.675 C 6.444,0.531 5.351,0.772 4.225,0.781 3.048,0.061 1.49,-0.158 0,0"
               style="fill:#232c25;fill-opacity:1;fill-rule:nonzero;stroke:none"
               id="path4538" />
          </g>
          <g
             transform="translate(54.9355,54.2995)"
             id="g4544">
            <path
               d="m 0,0 c -0.992,-4.389 -5.884,-7.178 -10.358,-6.701 -4.474,0.478 -8.334,3.619 -10.69,7.452 -0.8,1.299 -1.516,2.742 -2.465,3.917 -2.608,-4.594 -6.287,-9.105 -11.43,-9.22 -0.979,-0.022 -1.915,0.119 -2.816,0.382 -0.197,-0.503 -0.4,-1.003 -0.619,-1.494 -1.347,-3.028 -3.613,-6.027 -6.872,-6.628 -4.278,-0.787 -8.302,3.179 -9.04,7.466 -0.63,3.656 0.504,7.337 2.093,10.737 -0.883,0.484 -1.797,0.896 -2.738,1.214 l 0,-35.282 c 2.296,2.263 4.651,4.425 7.583,5.685 5.474,2.354 11.853,1.053 17.335,-1.28 5.482,-2.333 10.545,-5.652 16.213,-7.489 5.667,-1.838 12.397,-1.94 17.058,1.772 4.845,3.859 7.105,11.407 13.197,12.532 4.747,0.877 9.624,-2.849 14.235,-1.422 4.339,1.344 6.158,7.109 4.324,11.266 -2.499,5.662 -7.999,6.387 -13.121,8.14 C 15.18,3.342 9.131,9.138 3.392,13.208 2.895,13.56 2.389,13.913 1.874,14.263 1.05,13.33 0.408,12.275 0.051,11.026 -0.966,7.47 0.816,3.607 0,0"
               style="fill:#4a5b42;fill-opacity:1;fill-rule:nonzero;stroke:none"
               id="path4542" />
          </g>
          <g
             transform="translate(4.3215,82.2196)"
             id="g4548">
            <path
               d="m 0,0 c 3.644,0.061 5.209,-4.802 4.505,-8.378 -0.839,-4.268 -3.228,-8.037 -5.231,-11.898 -0.295,-0.568 -0.582,-1.147 -0.857,-1.733 -1.589,-3.4 -2.723,-7.081 -2.093,-10.737 0.738,-4.287 4.762,-8.253 9.04,-7.466 3.259,0.6 5.525,3.6 6.872,6.627 0.219,0.492 0.422,0.992 0.619,1.495 1.015,2.596 1.839,5.291 3.473,7.535 1.952,2.678 5.623,4.554 8.605,3.109 0.871,-0.423 1.566,-1.061 2.168,-1.806 0.949,-1.175 1.665,-2.618 2.464,-3.917 2.357,-3.833 6.217,-6.974 10.691,-7.452 4.474,-0.478 9.366,2.312 10.358,6.701 0.816,3.607 -0.966,7.47 0.051,11.025 0.357,1.25 0.999,2.305 1.823,3.238 3.619,4.097 10.77,5.811 12.928,11.098 1.809,4.43 -0.853,9.616 -4.687,12.477 -3.835,2.861 -8.613,4.059 -13.102,5.712 -4.49,1.654 -9.073,4.085 -11.27,8.335 -2.093,4.052 -1.777,9.327 -4.924,12.628 -4.485,4.706 -12.415,2.21 -18.627,4.128 -5.174,1.598 -9.294,6.369 -14.706,6.533 -0.827,0.025 -1.636,-0.068 -2.421,-0.257 l 0,-49.244 C -2.998,-1.115 -1.683,-0.028 0,0"
               style="fill:#8d9558;fill-opacity:1;fill-rule:nonzero;stroke:none"
               id="path4546" />
          </g>
          <g
             transform="translate(33.9146,132.101)"
             id="g4552">
            <path
               d="m 0,0 c -0.511,8.113 -5.879,15.106 -13.625,17.572 l -2.849,0.907 c -2.367,0.753 -4.952,1.504 -7.277,0.631 -4.055,-1.523 -4.856,-7.418 -2.481,-11.039 2.376,-3.621 6.723,-5.375 10.898,-6.526 4.175,-1.152 8.585,-1.972 12.113,-4.484 3.527,-2.513 5.862,-7.397 3.905,-11.26 -1.95,-3.848 -6.858,-4.831 -11.049,-5.85 -4.192,-1.018 -9.027,-3.469 -9.138,-7.781 -0.09,-3.464 3.24,-6.237 6.656,-6.816 3.416,-0.579 6.873,0.457 10.206,1.402 3.334,0.945 6.877,1.811 10.222,0.906 4.473,-1.211 7.559,-5.326 9.471,-9.548 1.912,-4.221 3.027,-8.816 5.43,-12.779 2.403,-3.962 6.618,-7.333 11.231,-6.893 4.006,0.382 7.317,3.498 11.302,4.064 4.161,0.592 8.266,-1.758 11.078,-4.882 2.812,-3.124 4.641,-6.982 6.812,-10.581 2.713,-4.5 6.113,-8.748 10.654,-11.391 4.542,-2.643 10.388,-3.452 15.083,-1.092 4.695,2.36 7.606,8.31 5.658,13.191 -1.476,3.699 -5.114,5.975 -7.942,8.781 -2.827,2.806 -4.955,7.372 -2.686,10.647 2.465,3.558 7.773,2.744 12.102,2.712 3.321,-0.025 6.763,0.717 9.374,2.769 2.612,2.053 4.199,5.595 3.316,8.797 -0.801,2.901 -3.335,4.949 -5.811,6.66 -2.45,1.693 -5.097,3.38 -6.488,6.008 -1.559,2.943 -0.365,6.634 2.63,8.09 2.611,1.269 5.185,4.039 7.323,5.853 2.308,1.959 3.984,4.93 3.597,7.933 C 109.144,0.434 104.27,3.254 99.8,3.19 95.331,3.126 91.199,0.964 87.208,-1.048 83.217,-3.061 78.93,-5.024 74.476,-4.647 64.92,-3.839 59.491,6.792 50.89,11.032 44.03,14.414 35.143,13.114 29.539,7.909 25.781,4.418 23.595,-0.421 20.377,-4.415 17.158,-8.409 12.017,-11.713 7.108,-10.225 2.925,-8.956 0.357,-4.488 0.009,-0.13 0.006,-0.087 0.003,-0.043 0,0"
               style="fill:#4a5b42;fill-opacity:1;fill-rule:nonzero;stroke:none"
               id="path4550" />
          </g>
          <g
             transform="translate(58.6785,176.7667)"
             id="g4556">
            <path
               d="m 0,0 c -2.842,-0.58 -5.738,-1.49 -7.861,-3.466 -2.123,-1.977 -3.255,-5.262 -2.004,-7.879 1.75,-3.657 6.966,-4.359 9.126,-7.789 2.888,-4.584 -1.301,-10.361 -1.307,-15.779 -0.004,-3.705 2.201,-7.329 5.493,-9.029 3.293,-1.7 7.524,-1.399 10.543,0.751 3.502,2.494 5.132,6.963 8.521,9.607 4.737,3.695 11.696,2.85 17.073,0.172 5.376,-2.678 9.836,-6.891 15.022,-9.921 5.187,-3.031 11.774,-4.797 17.149,-2.116 4.337,2.163 6.882,6.666 9.599,10.679 2.716,4.013 6.411,8.065 11.248,8.365 5.981,0.371 12.194,-5.126 17.391,-2.141 3.438,1.975 4.075,7.147 1.863,10.438 -2.213,3.29 -6.48,4.746 -10.437,4.485 -3.956,-0.26 -7.666,-1.98 -11.12,-3.928 -1.261,-0.712 -2.552,-1.475 -3.992,-1.637 -1.439,-0.161 -3.084,0.467 -3.604,1.819 -0.703,1.823 0.879,3.707 1.052,5.653 0.302,3.406 -3.894,5.672 -7.266,5.104 -3.372,-0.568 -6.154,-2.853 -9.191,-4.426 -2.516,-1.303 -5.87,-2.179 -8.54,-0.804 -2.417,1.245 -3.037,4.254 -5.263,5.711 -3.399,2.225 -7.564,0.479 -11.358,0.982 C 35.087,-4.215 28.273,-1.082 21.18,0.058 14.171,1.185 6.985,1.426 0,0"
               style="fill:#8d9558;fill-opacity:1;fill-rule:nonzero;stroke:none"
               id="path4554" />
          </g>
          <g
             transform="translate(198.713,172.7057)"
             id="g4560">
            <path
               d="M 0,0 C -1.74,0.631 -3.394,1.482 -4.927,2.514 -5.609,2.38 -6.29,2.203 -6.97,1.977 c -8.642,-2.882 -13.102,-13.175 -11.919,-22.208 0.881,-6.718 5.939,-20.782 13.787,-21.753 2.034,-0.251 4.194,-0.021 6.389,0.308 l 0,41.244 C 0.854,-0.295 0.424,-0.154 0,0"
               style="fill:#232c25;fill-opacity:1;fill-rule:nonzero;stroke:none"
               id="path4558" />
          </g>
          <g
             transform="translate(196.737,62.0986)"
             id="g4564">
            <path
               d="m 0,0 c -3.858,0.27 -8.076,-1.804 -9.259,-5.486 -1.177,-3.661 0.807,-7.774 -0.341,-11.445 -1.733,-5.538 -9.251,-6.918 -12.425,-11.776 -2.74,-4.195 -1.245,-10.347 2.737,-13.388 3.982,-3.041 9.774,-3.097 14.219,-0.785 3.205,1.667 5.732,4.361 8.332,6.924 l 0,35.282 C 2.209,-0.318 1.121,-0.078 0,0"
               style="fill:#4a5b42;fill-opacity:1;fill-rule:nonzero;stroke:none"
               id="path4562" />
          </g>
          <g
             transform="translate(191.5708,121.8031)"
             id="g4568">
            <path
               d="m 0,0 c -2.345,-4.961 -2.487,-10.686 -4.5,-15.825 -2.744,-7.002 -2.155,-12.588 0.11,-19.684 0.707,-2.215 1.446,-4.489 2.924,-6.284 1.477,-1.796 3.888,-3.023 6.137,-2.433 1.429,0.375 2.597,1.402 3.758,2.395 l 0,49.245 C 4.764,6.529 1.651,3.492 0,0"
               style="fill:#8d9558;fill-opacity:1;fill-rule:nonzero;stroke:none"
               id="path4566" />
          </g>
          <g
             transform="translate(59.3177,1.6119)"
             id="g4572">
            <path
               d="m 0,0 c -1.375,1.234 -2.555,2.711 -4.123,3.687 -5.895,3.669 -5.322,-2.199 -6.904,-5.299 l 13.138,0 C 1.376,-1.134 0.67,-0.601 0,0"
               style="fill:#4a5b42;fill-opacity:1;fill-rule:nonzero;stroke:none"
               id="path4570" />
          </g>
          <g
             transform="translate(6.7666,5.7459)"
             id="g4576">
            <path
               d="m 0,0 c -2.165,0.643 -4.469,1.191 -6.767,1.461 l 0,-7.207 24.455,0 C 11.733,-4.049 5.942,-1.765 0,0"
               style="fill:#4a5b42;fill-opacity:1;fill-rule:nonzero;stroke:none"
               id="path4574" />
          </g>
          <g
             transform="translate(157.8626,3.691)"
             id="g4580">
            <path
               d="M 0,0 C 2.013,0.716 4.114,1.49 5.542,3.079 6.971,4.668 7.439,7.34 5.97,8.894 3.435,11.573 0.708,8.65 -1.753,7.879 -4.669,6.964 -8.09,7.437 -11.21,7.361 -18.837,7.174 -26.453,6.568 -34.013,5.545 -38.07,4.997 -42.183,4.306 -45.85,2.484 -48.623,1.106 -51.135,-1.02 -52.63,-3.691 l 42.258,0 C -6.914,-2.461 -3.457,-1.23 0,0"
               style="fill:#232c25;fill-opacity:1;fill-rule:nonzero;stroke:none"
               id="path4578" />
          </g>
          <g
             transform="translate(199.9999,7.2072)"
             id="g4584">
            <path
               d="m 0,0 c -4.274,0.503 -8.525,0.041 -11.813,-2.575 -1.556,-1.237 -2.698,-2.838 -3.469,-4.632 L 0,-7.207 0,0 Z"
               style="fill:#4a5b42;fill-opacity:1;fill-rule:nonzero;stroke:none"
               id="path4582" />
          </g>
          <g
             transform="translate(104.1289,197.2554)"
             id="g4588">
            <path
               d="m 0,0 c -0.029,-0.113 -0.055,-0.227 -0.079,-0.342 -0.732,-3.489 0.648,-7.604 3.902,-9.029 2.195,-0.961 4.717,-0.562 7.079,-0.157 0.604,0.103 1.214,0.204 1.827,0.302 6.85,1.092 14.14,1.664 20.037,-1.831 4.367,-2.588 7.272,-7.038 11.177,-10.282 3.987,-3.314 9.045,-5.318 14.22,-5.635 3.645,-0.223 7.913,0.786 9.442,4.102 1.981,4.296 -1.964,9.008 -6.038,11.413 -4.668,2.755 -9.988,4.4 -15.397,4.761 -1.962,0.13 -3.999,0.11 -5.788,0.925 -1.789,0.815 -3.247,2.794 -2.706,4.684 0.526,1.841 2.567,2.724 4.37,3.365 0.439,0.157 0.877,0.313 1.316,0.469 l -42.258,0 C 0.622,1.884 0.245,0.967 0,0"
               style="fill:#232c25;fill-opacity:1;fill-rule:nonzero;stroke:none"
               id="path4586" />
          </g>
          <g
             transform="translate(184.1246,188.5972)"
             id="g4592">
            <path
               d="m 0,0 c 1.459,-5.431 5.003,-10.243 9.662,-13.378 1.533,-1.032 3.186,-1.882 4.926,-2.514 0.425,-0.153 0.855,-0.295 1.287,-0.432 l 0,27.727 -15.281,0 C -0.9,7.926 -0.999,3.719 0,0"
               style="fill:#4a5b42;fill-opacity:1;fill-rule:nonzero;stroke:none"
               id="path4590" />
          </g>
          <g
             transform="translate(52.712,34.5649)"
             id="g4596">
            <path
               d="m 0,0 c -5.943,-0.474 -11.912,0.685 -17.866,0.386 -5.954,-0.299 -12.373,-2.503 -15.297,-7.697 -2.151,-3.82 -1.906,-8.862 0.604,-12.456 2.51,-3.593 7.159,-5.559 11.486,-4.855 4.069,0.662 7.527,3.406 11.544,4.337 6.463,1.497 12.943,-1.883 18.765,-5.065 5.822,-3.182 12.471,-6.372 18.835,-4.498 5.966,1.757 9.947,7.53 15.699,9.897 8.713,3.586 18.278,-1.458 27.405,-3.798 5.112,-1.311 10.627,-1.741 15.598,0.03 4.972,1.771 9.257,6.093 9.86,11.336 0.602,5.242 -3.363,10.914 -8.634,11.178 C 84.312,-1.02 81.001,-3.229 77.778,-5.03 74.093,-7.09 70.035,-8.739 65.812,-8.738 61.59,-8.737 57.181,-6.811 55.108,-3.133 53.387,-0.08 52.966,4.296 49.678,5.508 47.512,6.307 45.119,5.215 43.218,3.906 41.316,2.597 39.472,0.995 37.193,0.627 34.914,0.259 32.13,1.888 32.384,4.183 c 0.115,1.028 0.789,1.89 1.31,2.784 2.338,4.012 1.463,9.61 -1.987,12.717 -3.449,3.107 -9.109,3.393 -12.854,0.65 C 13.859,16.678 16.363,11.976 14.276,7.422 12.028,2.519 4.838,0.385 0,0"
               style="fill:#8d9558;fill-opacity:1;fill-rule:nonzero;stroke:none"
               id="path4594" />
          </g>
          <g
             transform="translate(131.8255,16.1474)"
             id="g4600">
            <path
               d="m 0,0 c -7.196,-2.018 -15.021,-1.728 -22.048,0.818 -7.7,2.79 -15.184,8.296 -23.221,6.717 -3.068,-0.603 -6.175,-2.635 -6.718,-5.714 -0.497,-2.818 1.356,-5.632 3.784,-7.146 2.429,-1.513 5.337,-2.003 8.162,-2.463 2.692,1.089 4.763,-0.549 7.342,-1.885 2.58,-1.335 5.087,-3.032 7.97,-3.39 3.439,-0.427 6.773,1.12 10.153,1.884 5.014,1.133 10.231,0.54 15.371,0.498 5.141,-0.042 10.592,0.591 14.665,3.729 4.462,3.437 6.374,10.722 1.9,14.699 -1.034,0.919 -2.428,1.37 -3.777,1.064 C 10.97,8.218 10.843,5.41 9.278,3.81 7.838,2.339 5.431,2.211 3.511,2.954 3.151,3.094 2.804,3.258 2.468,3.442 0.332,4.612 -1.836,1.911 -0.155,0.15 -0.104,0.096 -0.052,0.046 0,0"
               style="fill:#4a5b42;fill-opacity:1;fill-rule:nonzero;stroke:none"
               id="path4598" />
          </g>
          <g
             transform="translate(145.9563,119.7468)"
             id="g4604">
            <path
               d="m 0,0 c -4.163,-0.972 -8.473,-1.114 -12.683,-1.855 -4.21,-0.741 -8.485,-2.189 -11.469,-5.25 -2.983,-3.062 -4.288,-8.055 -2.124,-11.741 3.532,-6.013 13.465,-5.416 17.049,-11.397 3.55,-5.925 -1.66,-13.351 -1.126,-20.237 0.486,-6.252 6.548,-11.525 12.806,-11.139 4.481,0.276 8.838,3.022 13.199,1.955 4.151,-1.015 6.67,-5.056 9.464,-8.29 2.794,-3.235 7.489,-6.028 11.126,-3.784 3.304,2.04 3.313,7.104 1.247,10.391 -2.067,3.287 -5.53,5.374 -8.546,7.82 -3.016,2.446 -5.842,5.785 -5.713,9.666 0.118,3.552 2.646,6.479 4.706,9.376 2.06,2.896 3.792,6.706 2.211,9.889 -1.761,3.542 -6.619,4.31 -9.105,7.387 -1.81,2.241 -2.069,5.446 -1.276,8.215 0.792,2.77 2.504,5.181 4.339,7.401 2.335,2.827 4.927,5.456 6.977,8.496 2.05,3.039 3.557,6.607 3.37,10.268 -0.224,4.376 -3.746,9.546 -8.689,8.871 C 21.7,25.487 21.915,22.382 21.2,19.055 19.07,9.152 9.581,2.238 0,0"
               style="fill:#8d9558;fill-opacity:1;fill-rule:nonzero;stroke:none"
               id="path4602" />
          </g>
          <g
             transform="translate(191.1822,150.6792)"
             id="g4608">
            <path
               d="m 0,0 c -1.203,5.777 -10.688,6.275 -12.311,11.948 -1.156,4.038 2.426,7.71 4.034,11.589 5.093,12.288 -9.424,22.463 -20.395,19.757 -4.626,-1.141 -8.718,-5.882 -7.35,-10.447 1.383,-4.614 7.609,-7.646 6.616,-12.359 -0.481,-2.282 -2.633,-3.85 -4.832,-4.628 -0.019,-0.007 -0.039,-0.014 -0.058,-0.021 -3.606,-1.259 -7.581,0.473 -9.216,3.924 -1.643,3.469 -3.141,6.999 -6.392,8.831 -4.435,2.498 -10.095,0.602 -15.002,1.957 -3.823,1.056 -6.636,3.863 -9.418,6.799 -0.613,-0.097 -1.223,-0.199 -1.827,-0.302 -2.362,-0.404 -4.884,-0.803 -7.079,0.158 -3.255,1.425 -4.634,5.539 -3.902,9.028 -6.132,1.617 -13.067,0.837 -19.532,0.116 -7.861,-0.876 -16.633,-1.225 -23.089,2.971 l -13.138,0 c -0.208,-0.408 -0.453,-0.768 -0.755,-1.052 -3.704,-3.482 -15.067,-0.916 -19.347,0.079 -1.254,0.292 -2.497,0.621 -3.734,0.973 l -24.455,0 0,-27.727 c 2.282,-0.723 4.637,-1.304 6.576,-2.685 6.419,-4.572 6.113,-16.165 13.617,-18.572 2.927,-0.939 6.388,0.138 8.265,2.571 1.878,2.434 2.04,6.055 0.389,8.647 -0.928,1.459 -2.399,2.72 -2.892,4.302 -0.096,0.308 -0.159,0.628 -0.169,0.964 -0.084,2.723 3.209,4.409 5.914,4.09 2.705,-0.318 5.098,-1.871 7.72,-2.608 0.458,-0.129 0.941,-0.219 1.43,-0.271 1.491,-0.158 3.048,0.061 4.225,0.781 0.65,0.396 1.186,0.941 1.526,1.664 0.853,1.814 0.146,3.985 0.59,5.94 0.712,3.137 4.331,4.917 7.534,4.604 3.202,-0.313 6.02,-2.188 8.569,-4.151 2.548,-1.964 5.057,-4.117 8.101,-5.158 4.797,-1.641 10.02,-0.262 15.066,0.228 5.046,0.491 11.008,-0.424 13.533,-4.82 2.822,-4.914 -0.235,-11.154 0.693,-16.744 1.187,-7.16 10.118,-11.811 16.665,-8.679 5.798,2.774 8.785,9.963 14.895,11.957 0.029,0.009 0.058,0.019 0.086,0.028 3.969,1.257 7.918,-1.902 7.715,-6.06 -0.093,-1.9 0.031,-3.807 0.368,-5.63 1.331,-7.204 5.502,-14.182 12.083,-17.399 6.581,-3.218 15.573,-1.702 19.653,4.382 1.504,2.244 2.307,4.945 4.087,6.978 2.404,2.746 6.141,3.805 9.362,5.52 C -2.359,-6.812 0.744,-3.573 0,0"
               style="fill:#4a5b42;fill-opacity:1;fill-rule:nonzero;stroke:none"
               id="path4606" />
          </g>
          <g
             transform="translate(162.0202,104.4185)"
             id="g4612">
            <path
               d="m 0,0 c -4.013,-0.69 -8.277,-0.63 -11.889,-2.51 -3.611,-1.881 -6.14,-6.772 -3.77,-10.083 1.824,-2.548 5.589,-2.852 8.578,-1.912 2.99,0.939 5.599,2.824 8.54,3.906 2.941,1.082 6.638,1.165 8.808,-1.095 1.927,-2.007 2.01,-5.131 3.303,-7.594 1.934,-3.688 6.888,-5.44 10.71,-3.787 3.823,1.652 5.941,6.461 4.579,10.396 -1.168,3.377 -4.475,6.008 -4.534,9.58 -0.055,3.333 2.717,5.91 4.548,8.694 2.037,3.098 4.516,10.742 1.872,14.196 -3.109,4.064 -6.45,0 -8.154,-2.829 C 17.456,8.435 10.14,1.744 0,0"
               style="fill:#232c25;fill-opacity:1;fill-rule:nonzero;stroke:none"
               id="path4610" />
          </g>
          <g
             transform="translate(95.4919,104.7519)"
             id="g4616">
            <path
               d="m 0,0 c -2.327,1.17 -4.783,2.3 -7.388,2.321 -2.605,0.02 -5.399,-1.374 -6.202,-3.852 -0.898,-2.775 0.913,-5.679 2.93,-7.786 2.016,-2.107 4.438,-4.097 5.175,-6.919 0.834,-3.188 -0.722,-6.44 -1.752,-9.57 -1.029,-3.131 -1.306,-7.13 1.274,-9.179 3.566,-2.831 9.217,0.509 13.266,-1.574 4.142,-2.133 3.82,-7.974 4.679,-12.553 1.307,-6.967 7.039,-12.895 13.958,-14.436 4.843,-1.078 10.947,0.643 12.414,5.383 1.047,3.386 -0.697,7.11 -3.283,9.534 -2.585,2.424 -5.904,3.874 -9.03,5.544 -3.843,2.054 -7.56,4.578 -10.091,8.125 -2.532,3.547 -3.716,8.279 -2.204,12.366 2.308,6.24 13.16,5.497 5.115,11.228 C 12.876,-7.105 6.565,-3.301 0,0"
               style="fill:#8d9558;fill-opacity:1;fill-rule:nonzero;stroke:none"
               id="path4614" />
          </g>
          <g
             transform="translate(98.2209,118.9863)"
             id="g4620">
            <path
               d="m 0,0 c -0.188,2.683 -3.57,2.867 -5.661,3.463 -4.842,1.38 -16.127,10.658 -20.092,4.156 -0.97,-1.591 -0.833,-3.638 -1.636,-5.319 -1.88,-3.934 -7.337,-3.886 -11.695,-4.002 -4.382,-0.117 -8.92,-1.089 -12.326,-3.848 -2.271,-1.84 -3.891,-4.616 -4.245,-7.471 -0.036,-0.286 -0.138,-0.561 -0.286,-0.809 -0.417,-0.693 -0.873,-1.306 -1.398,-1.766 -2.752,-2.414 -6.092,-4.048 -9.043,-6.215 -2.95,-2.167 -5.634,-5.133 -6.103,-8.763 -0.469,-3.631 2.169,-7.765 5.83,-7.747 2.342,0.011 4.338,1.581 6.278,2.894 1.939,1.313 4.38,2.466 6.547,1.579 2.589,-1.058 3.366,-4.403 5.548,-6.152 3.218,-2.58 8.147,-0.74 11.086,2.153 1.454,1.432 2.713,3.166 3.103,5.168 0.391,2.003 -0.256,4.298 -1.948,5.437 -2.886,1.943 -7.554,0.042 -9.837,2.667 -0.006,0.008 -0.013,0.015 -0.019,0.023 -0.886,1.036 -0.518,2.62 0.681,3.269 0.281,0.151 0.551,0.33 0.808,0.536 1.99,1.597 2.757,4.236 4.172,6.359 2.864,4.295 8.124,6.184 13.024,7.807 5.256,1.741 10.72,3.505 16.22,2.867 C -8.222,-4.036 0.383,-5.48 0,0"
               style="fill:#232c25;fill-opacity:1;fill-rule:nonzero;stroke:none"
               id="path4618" />
          </g>
          <g
             transform="translate(199.9999,51.4363)"
             id="g4624">
            <path
               d="m 0,0 c -1.36,-0.429 -2.692,-1.232 -3.971,-2.521 -4.978,-5.014 -2.727,-14.395 -7.765,-19.349 -2.282,-2.244 -5.568,-3.04 -8.473,-4.384 -2.905,-1.344 -5.803,-3.855 -5.651,-7.052 0.167,-3.508 3.786,-5.7 7.013,-7.086 6.046,-2.597 12.327,-4.647 18.741,-6.118 0.035,-0.008 0.071,-0.016 0.106,-0.024 L 0,0 Z"
               style="fill:#232c25;fill-opacity:1;fill-rule:nonzero;stroke:none"
               id="path4622" />
          </g>
          <g
             transform="translate(48.9593,26.4762)"
             id="g4628">
            <path
               d="m 0,0 c -1.767,3.237 -6.254,3.525 -9.923,3.145 -5.121,-0.53 -9.217,-0.554 -12.044,4.21 -2.399,4.043 -3.079,6.745 -7.235,9.242 -5.474,3.289 -12.977,10.501 -19.757,8.363 l 0,-46.534 c 4.75,-1.081 10.109,-1.715 14.128,1.025 3.56,2.426 5.241,7.001 8.898,9.277 3.153,1.962 7.136,1.831 10.836,1.505 3.699,-0.325 7.592,-0.751 10.988,0.753 C -0.713,-7.511 1.779,-3.26 0,0"
               style="fill:#232c25;fill-opacity:1;fill-rule:nonzero;stroke:none"
               id="path4626" />
          </g>
          <g
             transform="translate(128.2821,185.7219)"
             id="g4632">
            <path
               d="m 0,0 c -3.818,1.191 -8.354,2.51 -11.497,0.036 -3.422,-2.694 -2.574,-8.575 0.746,-11.394 3.321,-2.819 8.079,-3.202 12.406,-2.709 2.483,0.282 5.06,0.798 7.427,-0.003 3.522,-1.191 5.457,-4.852 7.259,-8.104 1.802,-3.252 4.336,-6.738 8.042,-7.043 4.924,-0.405 8.713,5.053 13.653,5.146 3.375,0.063 6.238,-2.392 9.482,-3.326 5.52,-1.589 11.839,1.883 13.956,7.223 2.116,5.34 0.192,11.849 -4.134,15.627 -3.251,2.838 -8.375,4.678 -12.71,3.874 C 41.139,-1.321 38.494,-3.632 34.859,-4.114 23.519,-5.618 10.808,-3.37 0,0"
               style="fill:#8d9558;fill-opacity:1;fill-rule:nonzero;stroke:none"
               id="path4630" />
          </g>
        </g>
      </g>
    </pattern>
    <clipPath
       clipPathUnits="userSpaceOnUse"
       id="clipPath4656">
      <path
         d="M 0,500 H 500 V 0 H 0 Z"
         id="path4654" />
    </clipPath>
    <clipPath
       clipPathUnits="userSpaceOnUse"
       id="clipPath4664">
      <path
         d="M 175.493,28.1328 H 324.507 V 13.7119 H 175.493 Z"
         id="path4662" />
    </clipPath>
  </defs>
  <metadata
     id="metadata5">
    <rdf:RDF>
      <cc:Work
         rdf:about="">
        <dc:format>image/svg+xml</dc:format>
        <dc:type
           rdf:resource="http://purl.org/dc/dcmitype/StillImage" />
        <dc:title></dc:title>
      </cc:Work>
    </rdf:RDF>
  </metadata>
  <g
     transform="translate(-16.882938,-47.787705)"
     id="layer1">
    <path
       id="path4640"
       style="fill:url(#pattern5001);fill-opacity:1;fill-rule:nonzero;stroke:none;stroke-width:0.35277778"
       d="M 16.882938,224.17659 H 193.27182 V 47.787705 H 16.882938 Z" />
  </g>
</svg>
