<?xml version="1.0" encoding="UTF-8"?>
<!-- Created with Inkscape (http://www.inkscape.org/) -->
<svg width="82.559mm" height="22.2mm" version="1.1" viewBox="0 0 82.559 22.2" xmlns="http://www.w3.org/2000/svg" xmlns:cc="http://creativecommons.org/ns#" xmlns:dc="http://purl.org/dc/elements/1.1/" xmlns:rdf="http://www.w3.org/1999/02/22-rdf-syntax-ns#">
 <metadata>
  <rdf:RDF>
   <cc:Work rdf:about="">
    <dc:format>image/svg+xml</dc:format>
    <dc:type rdf:resource="http://purl.org/dc/dcmitype/StillImage"/>
    <dc:title/>
   </cc:Work>
  </rdf:RDF>
 </metadata>
 <g transform="translate(-64.554 -137.73)">
  <g fill="#ff1d23" stroke-width=".26458px" aria-label="ČTVRTEK">
   <path d="m66.383 137.73 2.921 3.2512h-1.27l-2.921-3.2512zm5.461 3.2512h-1.27l-2.921-3.2512h1.27l1.016 1.0668 1.016-1.0668h1.27l-1.651 1.8288 0.635 0.7112 2.286-2.54h1.27zm-6.0198 13.462c0 2.8194 0.9398 4.3434 4.0386 4.3434h0.635c3.0988 0 4.0386-1.524 4.0386-4.3434v-1.4478h1.27v1.4478c0 3.429-1.6002 5.4864-5.3086 5.4864h-0.635c-3.7084 0-5.3086-2.0574-5.3086-5.4864v-7.2136c0-3.429 1.6002-5.4864 5.3086-5.4864h0.635c3.7084 0 5.3086 2.0574 5.3086 5.4864v1.4478h-1.27v-1.4478c0-2.8194-0.9398-4.3434-4.0386-4.3434h-0.635c-3.0988 0-4.0386 1.524-4.0386 4.3434zm1.27-7.9756c0-1.4224 0.4572-2.3114 2.2606-2.3114h1.651c1.8034 0 2.2606 0.889 2.2606 2.3114v2.2098h-1.27v-2.2098c0-0.7874-0.254-1.1684-0.9906-1.1684h-1.651c-0.7366 0-0.9906 0.381-0.9906 1.1684v8.7376c0 0.7874 0.254 1.1684 0.9906 1.1684h1.651c0.7366 0 0.9906-0.381 0.9906-1.1684v-2.2098h1.27v2.2098c0 1.4224-0.4572 2.3114-2.2606 2.3114h-1.651c-1.8034 0-2.2606-0.889-2.2606-2.3114z"/>
   <path d="m76.845 142h9.4488v1.143h-9.4488zm0 2.413h9.4488v1.143h-2.8194v14.122h-1.27v-14.122h-1.27v14.122h-1.27v-14.122h-2.8194z"/>
   <path d="m88.329 142 4.191 17.678h-1.27l-4.191-17.678zm5.461 17.678-4.191-17.678h1.27l2.286 9.6266 2.286-9.6266h1.27l-2.921 12.319 0.635 2.6924 3.556-15.011h1.27l-4.191 17.678z"/>
   <path d="m112.28 159.68h-1.27l-2.2098-6.0198c-0.381 0.1016-0.7874 0.1778-1.2192 0.2286l2.032 5.7912h-1.27l-2.0066-5.7404h-1.7526v5.7404h-1.27v-5.7404h-1.27v5.7404h-1.27v-6.8834h5.9436c3.0988 0 4.0386-1.524 4.0386-4.3434v-0.9652c0-2.8194-0.9398-4.3434-4.0386-4.3434h-5.9436v-1.143h5.9436c3.7084 0 5.3086 2.0574 5.3086 5.4864v0.9652c0 2.2098-0.6604 3.8354-2.1336 4.7244zm-11.506-15.265h6.4516c1.8034 0 2.2606 0.889 2.2606 2.3114v2.4892c0 1.4224-0.4572 2.3114-2.2606 2.3114h-6.4516zm1.27 5.969h1.27v-4.826h-1.27zm2.54 0h2.6416c0.7366 0 0.9906-0.381 0.9906-1.1684v-2.4892c0-0.7874-0.254-1.1684-0.9906-1.1684h-2.6416z"/>
   <path d="m113.06 142h9.4488v1.143h-9.4488zm0 2.413h9.4488v1.143h-2.8194v14.122h-1.27v-14.122h-1.27v14.122h-1.27v-14.122h-2.8194z"/>
   <path d="m124.29 142h8.7884v1.143h-8.7884zm0 2.413h8.7884v1.143h-4.9784v3.4036h4.7244v1.143h-8.5344zm1.27 4.5466h1.27v-3.4036h-1.27zm-1.27 2.413h8.5344v1.143h-4.7244v3.6068h4.9784v1.143h-8.7884zm1.27 4.7498h1.27v-3.6068h-1.27zm-1.27 2.413h8.7884v1.143h-8.7884z"/>
   <path d="m142.54 148.83 2.7432-6.8326h1.3208l-3.2004 7.9756h-8.0518v-7.9756h1.27v6.8326h1.27v-6.8326h1.27v6.8326h0.762l2.7432-6.8326h1.3208l-2.7432 6.8326zm-1.143 3.556 3.0988 7.2898h-1.3208l-3.0988-7.2898h-0.9144v7.2898h-1.27v-7.2898h-1.27v7.2898h-1.27v-8.4328h8.1788l3.5814 8.4328h-1.3208l-3.0988-7.2898z"/>
  </g>
 </g>
</svg>
