<?xml version="1.0" encoding="UTF-8"?>
<!-- Created with Inkscape (http://www.inkscape.org/) -->
<svg width="272.95mm" height="22.2mm" version="1.1" viewBox="0 0 272.95 22.2" xmlns="http://www.w3.org/2000/svg" xmlns:cc="http://creativecommons.org/ns#" xmlns:dc="http://purl.org/dc/elements/1.1/" xmlns:rdf="http://www.w3.org/1999/02/22-rdf-syntax-ns#">
 <metadata>
  <rdf:RDF>
   <cc:Work rdf:about="">
    <dc:format>image/svg+xml</dc:format>
    <dc:type rdf:resource="http://purl.org/dc/dcmitype/StillImage"/>
    <dc:title/>
   </cc:Work>
  </rdf:RDF>
 </metadata>
 <g transform="translate(30.64 -137.73)">
  <g fill="#ff1d23" aria-label="šestajovická šestka 2019">
   <path d="m-26.703 140.98-2.921-3.2512h3.3782l1.2192 1.0668 1.2446-1.0668h3.3782l-2.921 3.2512zm1.4986 18.948c-3.7084 0-5.3086-1.8034-5.3086-5.2324v-0.9398h3.81v1.4478c0 0.7874 0.254 1.1684 0.9906 1.1684h1.524c0.7366 0 0.9906-0.381 0.9906-1.1684v-0.9906c0-2.3876-7.4422-0.8382-7.4422-6.7564v-0.4826c0-3.175 1.6002-5.2324 5.3086-5.2324h0.508c3.7084 0 5.3086 1.8034 5.3086 5.2324v0.9398h-3.81v-1.4478c0-0.7874-0.254-1.1684-0.9906-1.1684h-1.524c-0.7366 0-0.9906 0.381-0.9906 1.1684v0.9906c0 2.3622 7.4422 0.8382 7.4422 6.7564v0.4826c0 3.175-1.6002 5.2324-5.3086 5.2324z"/>
   <path d="m-8.5568 148.96v3.556h-4.7244v3.6068h4.9784v3.556h-8.7884v-17.678h8.7884v3.556h-4.9784v3.4036z"/>
   <path d="m-0.84667 159.93c-3.7084 0-5.3086-1.8034-5.3086-5.2324v-0.9398h3.81v1.4478c0 0.7874 0.254 1.1684 0.9906 1.1684h1.524c0.7366 0 0.9906-0.381 0.9906-1.1684v-0.9906c0-2.3876-7.4422-0.8382-7.4422-6.7564v-0.4826c0-3.175 1.6002-5.2324 5.3086-5.2324h0.508c3.7084 0 5.3086 1.8034 5.3086 5.2324v0.9398h-3.81v-1.4478c0-0.7874-0.254-1.1684-0.9906-1.1684h-1.524c-0.7366 0-0.9906 0.381-0.9906 1.1684v0.9906c0 2.3622 7.4422 0.8382 7.4422 6.7564v0.4826c0 3.175-1.6002 5.2324-5.3086 5.2324z"/>
   <path d="m8.8284 159.68v-14.122h-2.8194v-3.556h9.4488v3.556h-2.8194v14.122z"/>
   <path d="m19.276 156.86-0.5334 2.8194h-3.81l4.191-17.678h3.81l4.191 17.678h-3.81l-0.5334-2.8194zm2.8448-3.556c-0.3556-1.8542-0.7874-3.8862-1.016-5.5626h-0.1524c-0.2286 1.6764-0.6604 3.7084-1.016 5.5626z"/>
   <path d="m28.649 145.56v-3.556h7.5438v3.556h-1.8034v8.636c0 3.429-1.6002 5.4864-5.3086 5.4864h-1.4478v-3.556h1.9558c0.7366 0 0.9906-0.381 0.9906-1.1684v-9.398z"/>
   <path d="m37.473 147.23c0-3.429 1.6002-5.4864 5.3086-5.4864h0.635c3.7084 0 5.3086 2.0574 5.3086 5.4864v7.2136c0 3.429-1.6002 5.4864-5.3086 5.4864h-0.635c-3.7084 0-5.3086-2.0574-5.3086-5.4864zm7.4422-0.762c0-0.7874-0.254-1.1684-0.9906-1.1684h-1.651c-0.7366 0-0.9906 0.381-0.9906 1.1684v8.7376c0 0.7874 0.254 1.1684 0.9906 1.1684h1.651c0.7366 0 0.9906-0.381 0.9906-1.1684z"/>
   <path d="m53.701 159.68-4.191-17.678h3.81l1.0414 4.826c0.3302 1.4986 0.8382 4.1148 1.1684 7.112h0.1524c0.3302-2.9972 0.8382-5.6134 1.1684-7.112l1.0414-4.826h3.81l-4.191 17.678z"/>
   <path d="m64.395 145.56h-1.9304v-3.556h7.6708v3.556h-1.9304v10.566h1.9304v3.556h-7.6708v-3.556h1.9304z"/>
   <path d="m79.096 148.68v-2.2098c0-0.7874-0.254-1.1684-0.9906-1.1684h-1.651c-0.7366 0-0.9906 0.381-0.9906 1.1684v8.7376c0 0.7874 0.254 1.1684 0.9906 1.1684h1.651c0.7366 0 0.9906-0.381 0.9906-1.1684v-2.2098h3.81v1.4478c0 3.429-1.6002 5.4864-5.3086 5.4864h-0.635c-3.7084 0-5.3086-2.0574-5.3086-5.4864v-7.2136c0-3.429 1.6002-5.4864 5.3086-5.4864h0.635c3.7084 0 5.3086 2.0574 5.3086 5.4864v1.4478z"/>
   <path d="m93.027 159.68h3.937l-3.9116-9.1948 3.4036-8.4836h-3.937l-2.7432 6.8326h-0.762v-6.8326h-3.81v17.678h3.81v-7.2898h0.9144z"/>
   <path d="m107.48 137.73-2.5654 3.2512h-3.2004l1.9558-3.2512zm-5.4102 19.126-0.5334 2.8194h-3.81l4.191-17.678h3.81l4.191 17.678h-3.81l-0.5334-2.8194zm2.8448-3.556c-0.3556-1.8542-0.7874-3.8862-1.016-5.5626h-0.1524c-0.2286 1.6764-0.6604 3.7084-1.016 5.5626z"/>
   <path d="m120.19 140.98-2.921-3.2512h3.3782l1.2192 1.0668 1.2446-1.0668h3.3782l-2.921 3.2512zm1.4986 18.948c-3.7084 0-5.3086-1.8034-5.3086-5.2324v-0.9398h3.81v1.4478c0 0.7874 0.254 1.1684 0.9906 1.1684h1.524c0.7366 0 0.9906-0.381 0.9906-1.1684v-0.9906c0-2.3876-7.4422-0.8382-7.4422-6.7564v-0.4826c0-3.175 1.6002-5.2324 5.3086-5.2324h0.508c3.7084 0 5.3086 1.8034 5.3086 5.2324v0.9398h-3.81v-1.4478c0-0.7874-0.254-1.1684-0.9906-1.1684h-1.524c-0.7366 0-0.9906 0.381-0.9906 1.1684v0.9906c0 2.3622 7.4422 0.8382 7.4422 6.7564v0.4826c0 3.175-1.6002 5.2324-5.3086 5.2324z"/>
   <path d="m138.34 148.96v3.556h-4.7244v3.6068h4.9784v3.556h-8.7884v-17.678h8.7884v3.556h-4.9784v3.4036z"/>
   <path d="m146.05 159.93c-3.7084 0-5.3086-1.8034-5.3086-5.2324v-0.9398h3.81v1.4478c0 0.7874 0.254 1.1684 0.9906 1.1684h1.524c0.7366 0 0.9906-0.381 0.9906-1.1684v-0.9906c0-2.3876-7.4422-0.8382-7.4422-6.7564v-0.4826c0-3.175 1.6002-5.2324 5.3086-5.2324h0.508c3.7084 0 5.3086 1.8034 5.3086 5.2324v0.9398h-3.81v-1.4478c0-0.7874-0.254-1.1684-0.9906-1.1684h-1.524c-0.7366 0-0.9906 0.381-0.9906 1.1684v0.9906c0 2.3622 7.4422 0.8382 7.4422 6.7564v0.4826c0 3.175-1.6002 5.2324-5.3086 5.2324z"/>
   <path d="m155.72 159.68v-14.122h-2.8194v-3.556h9.4488v3.556h-2.8194v14.122z"/>
   <path d="m171.96 159.68h3.937l-3.9116-9.1948 3.4036-8.4836h-3.937l-2.7432 6.8326h-0.762v-6.8326h-3.81v17.678h3.81v-7.2898h0.9144z"/>
   <path d="m181 156.86-0.5334 2.8194h-3.81l4.191-17.678h3.81l4.191 17.678h-3.81l-0.5334-2.8194zm2.8448-3.556c-0.3556-1.8542-0.7874-3.8862-1.016-5.5626h-0.1524c-0.2286 1.6764-0.6604 3.7084-1.016 5.5626z"/>
   <path d="m203.77 147.46c0 3.8862-7.3152 2.7686-7.3152 7.6708v0.9906h1.27v-0.9906c0-3.6576 7.3152-2.5146 7.3152-7.6708v-0.4826c0-2.5654-0.9398-4.0894-4.0386-4.0894h-0.508c-3.0988 0-4.0386 1.27-4.0386 4.0894v0.9398h-1.27v-0.9398c0-3.429 1.6002-5.2324 5.3086-5.2324h0.508c3.7084 0 5.3086 2.0574 5.3086 5.2324v0.4826c0 5.9182-7.3152 5.2832-7.3152 7.6708v0.9906h7.0612v1.143h-10.871v-2.1336c0-5.9182 7.3152-4.8006 7.3152-7.6708v-0.9906c0-0.7874-0.254-1.1684-0.9906-1.1684h-1.524c-0.7366 0-0.9906 0.381-0.9906 1.1684v1.4478h-1.27v-1.4478c0-1.4224 0.4572-2.3114 2.2606-2.3114h1.524c1.8034 0 2.2606 0.889 2.2606 2.3114zm-8.5852 11.074h10.871v1.143h-10.871z"/>
   <path d="m208.33 147.23c0-3.429 1.6002-5.4864 5.3086-5.4864h0.635c3.7084 0 5.3086 2.0574 5.3086 5.4864v7.2136c0 3.429-1.6002 5.4864-5.3086 5.4864h-0.635c-3.7084 0-5.3086-2.0574-5.3086-5.4864zm1.27 7.2136c0 2.8194 0.9398 4.3434 4.0386 4.3434h0.635c3.0988 0 4.0386-1.524 4.0386-4.3434v-7.2136c0-2.8194-0.9398-4.3434-4.0386-4.3434h-0.635c-3.0988 0-4.0386 1.524-4.0386 4.3434zm1.27-7.9756c0-1.4224 0.4572-2.3114 2.2606-2.3114h1.651c1.8034 0 2.2606 0.889 2.2606 2.3114v8.7376c0 1.4224-0.4572 2.3114-2.2606 2.3114h-1.651c-1.8034 0-2.2606-0.889-2.2606-2.3114zm4.9022 0c0-0.7874-0.254-1.1684-0.9906-1.1684h-1.651c-0.7366 0-0.9906 0.381-0.9906 1.1684v8.7376c0 0.7874 0.254 1.1684 0.9906 1.1684h1.651c0.7366 0 0.9906-0.381 0.9906-1.1684z"/>
   <path d="m221.12 142h6.2484v1.143h-6.2484zm0 14.122h2.4384v-10.566h-2.4384v-1.143h6.2484v11.709h2.1844v1.143h-8.4328zm3.7084-10.566v10.566h1.27v-10.566zm-3.7084 12.979h8.4328v1.143h-8.4328z"/>
   <path d="m237 141.75h-0.889c-3.7084 0-5.3086 2.0574-5.3086 4.9784v1.5494c0 2.921 1.0922 4.9784 4.8006 4.9784h0.889c0.7112 0 1.397-0.0762 2.0066-0.2286v2.1844c0 0.7874-0.254 1.1684-0.9906 1.1684h-1.905c-0.7366 0-0.9906-0.381-0.9906-1.1684v-0.9398h-1.27v0.9398c0 1.4224 0.4572 2.3114 2.2606 2.3114h1.905c1.8034 0 2.2606-0.889 2.2606-2.3114v-8.7376c0-1.4224-0.4572-2.3114-2.2606-2.3114h-1.905c-1.8034 0-2.2606 0.889-2.2606 2.3114v2.0574c0 1.4224 0.4572 2.3114 2.2606 2.3114h1.905c0.381 0 0.7112-0.0508 0.9906-0.127v1.1684c-0.6096 0.1524-1.2954 0.2286-2.0066 0.2286h-0.889c-3.0988 0-3.5306-1.524-3.5306-3.8354v-1.5494c0-2.3114 0.9398-3.8354 4.0386-3.8354h0.889c3.0988 0 4.0386 1.27 4.0386 4.0894v7.4676c0 2.8194-0.9398 4.3434-4.0386 4.3434h-0.889c-3.0988 0-4.0386-1.524-4.0386-3.8354v-0.6858h-1.27v0.6858c0 2.921 1.6002 4.9784 5.3086 4.9784h0.889c3.7084 0 5.3086-2.0574 5.3086-5.4864v-7.4676c0-3.429-1.6002-5.2324-5.3086-5.2324zm0.508 7.9502h-1.905c-0.7366 0-0.9906-0.381-0.9906-1.1684v-2.0574c0-0.7874 0.254-1.1684 0.9906-1.1684h1.905c0.7366 0 0.9906 0.381 0.9906 1.1684v2.0574c0 0.7874-0.254 1.1684-0.9906 1.1684z"/>
  </g>
 </g>
</svg>
