<?xml version="1.0" encoding="UTF-8"?>
<!-- Created with Inkscape (http://www.inkscape.org/) -->
<svg width="254.85pt" height="51.552pt" version="1.1" viewBox="0 0 89.906 18.186" xmlns="http://www.w3.org/2000/svg" xmlns:cc="http://creativecommons.org/ns#" xmlns:dc="http://purl.org/dc/elements/1.1/" xmlns:rdf="http://www.w3.org/1999/02/22-rdf-syntax-ns#">
 <metadata>
  <rdf:RDF>
   <cc:Work rdf:about="">
    <dc:format>image/svg+xml</dc:format>
    <dc:type rdf:resource="http://purl.org/dc/dcmitype/StillImage"/>
    <dc:title/>
   </cc:Work>
  </rdf:RDF>
 </metadata>
 <g transform="translate(-76.264 -94.071)">
  <g fill="#ff1d23" stroke-width=".26458px" aria-label="o sokole">
   <path d="m76.264 99.557c0-3.429 1.6002-5.4864 5.3086-5.4864h0.635c3.7084 0 5.3086 2.0574 5.3086 5.4864v7.2136c0 3.429-1.6002 5.4864-5.3086 5.4864h-0.635c-3.7084 0-5.3086-2.0574-5.3086-5.4864zm7.4422-0.762c0-0.7874-0.254-1.1684-0.9906-1.1684h-1.651c-0.7366 0-0.9906 0.381-0.9906 1.1684v8.7376c0 0.7874 0.254 1.1684 0.9906 1.1684h1.651c0.7366 0 0.9906-0.381 0.9906-1.1684z"/>
   <path d="m100.06 112.26c-3.7084 0-5.3086-1.8034-5.3086-5.2324v-0.9398h3.81v1.4478c0 0.7874 0.254 1.1684 0.9906 1.1684h1.524c0.7366 0 0.9906-0.381 0.9906-1.1684v-0.9906c0-2.3876-7.4422-0.8382-7.4422-6.7564v-0.4826c0-3.175 1.6002-5.2324 5.3086-5.2324h0.508c3.7084 0 5.3086 1.8034 5.3086 5.2324v0.9398h-3.81v-1.4478c0-0.7874-0.254-1.1684-0.9906-1.1684h-1.524c-0.7366 0-0.9906 0.381-0.9906 1.1684v0.9906c0 2.3622 7.4422 0.8382 7.4422 6.7564v0.4826c0 3.175-1.6002 5.2324-5.3086 5.2324z"/>
   <path d="m107.92 99.557c0-3.429 1.6002-5.4864 5.3086-5.4864h0.635c3.7084 0 5.3086 2.0574 5.3086 5.4864v7.2136c0 3.429-1.6002 5.4864-5.3086 5.4864h-0.635c-3.7084 0-5.3086-2.0574-5.3086-5.4864zm7.4422-0.762c0-0.7874-0.254-1.1684-0.9906-1.1684h-1.651c-0.7366 0-0.9906 0.381-0.9906 1.1684v8.7376c0 0.7874 0.254 1.1684 0.9906 1.1684h1.651c0.7366 0 0.9906-0.381 0.9906-1.1684z"/>
   <path d="m129.29 112h3.937l-3.9116-9.1948 3.4036-8.4836h-3.937l-2.7432 6.8326h-0.762v-6.8326h-3.81v17.678h3.81v-7.2898h0.9144z"/>
   <path d="m133.76 99.557c0-3.429 1.6002-5.4864 5.3086-5.4864h0.635c3.7084 0 5.3086 2.0574 5.3086 5.4864v7.2136c0 3.429-1.6002 5.4864-5.3086 5.4864h-0.635c-3.7084 0-5.3086-2.0574-5.3086-5.4864zm7.4422-0.762c0-0.7874-0.254-1.1684-0.9906-1.1684h-1.651c-0.7366 0-0.9906 0.381-0.9906 1.1684v8.7376c0 0.7874 0.254 1.1684 0.9906 1.1684h1.651c0.7366 0 0.9906-0.381 0.9906-1.1684z"/>
   <path d="m151.12 108.45h4.2164v3.556h-8.0264v-17.678h3.81z"/>
   <path d="m165.92 101.28v3.556h-4.7244v3.6068h4.9784v3.556h-8.7884v-17.678h8.7884v3.556h-4.9784v3.4036z"/>
  </g>
 </g>
</svg>
