<?xml version="1.0" encoding="UTF-8"?>
<!-- Created with Inkscape (http://www.inkscape.org/) -->
<svg width="56.756mm" height="21.946mm" version="1.1" viewBox="0 0 56.756 21.946" xmlns="http://www.w3.org/2000/svg" xmlns:cc="http://creativecommons.org/ns#" xmlns:dc="http://purl.org/dc/elements/1.1/" xmlns:rdf="http://www.w3.org/1999/02/22-rdf-syntax-ns#">
 <metadata>
  <rdf:RDF>
   <cc:Work rdf:about="">
    <dc:format>image/svg+xml</dc:format>
    <dc:type rdf:resource="http://purl.org/dc/dcmitype/StillImage"/>
    <dc:title/>
   </cc:Work>
  </rdf:RDF>
 </metadata>
 <g transform="translate(-77.455 -137.86)">
  <g fill="#e40521" stroke-width=".26458px" aria-label="PÃTEK">
   <path d="m81.265 159.81h-1.27v-5.2324h-1.27v5.2324h-1.27v-6.3754h5.9436c3.0988 0 4.0386-1.524 4.0386-4.3434v-1.4732c0-2.8194-0.9398-4.3434-4.0386-4.3434h-5.9436v-1.143h5.9436c3.7084 0 5.3086 2.0574 5.3086 5.4864v1.4732c0 3.429-1.6002 5.4864-5.3086 5.4864h-2.1336zm-3.81-15.265h6.4516c1.8034 0 2.2606 0.889 2.2606 2.3114v2.9972c0 1.4224-0.4572 2.3114-2.2606 2.3114h-6.4516zm2.54 1.143h-1.27v5.334h1.27zm1.27 5.334h2.6416c0.7366 0 0.9906-0.381 0.9906-1.1684v-2.9972c0-0.7874-0.254-1.1684-0.9906-1.1684h-2.6416z"/>
   <path d="m95.327 137.86-1.9558 3.2512h-1.27l1.9558-3.2512zm2.54 0-1.9558 3.2512h-1.27l1.9558-3.2512zm-1.2192 15.57h1.27l-2.6924-11.303h1.27l2.9464 12.446h-9.7028l2.9464-12.446h1.27zm-5.3848 0h1.27l1.4224-5.9436-0.635-2.6924zm2.54 0h1.5748l-0.7874-3.302zm-0.8382 3.556-0.6604 2.8194h-1.27l0.6604-2.8194h-1.27l-0.6604 2.8194h-1.27l0.9398-3.9624h10.312l0.9398 3.9624h-1.27l-0.6604-2.8194h-1.27l0.6604 2.8194h-1.27l-0.6604-2.8194z"/>
   <path d="m100.16 142.13h9.4488v1.143h-9.4488zm0 2.413h9.4488v1.143h-2.8194v14.122h-1.27v-14.122h-1.27v14.122h-1.27v-14.122h-2.8194z"/>
   <path d="m111.39 142.13h8.7884v1.143h-8.7884zm0 2.413h8.7884v1.143h-4.9784v3.4036h4.7244v1.143h-8.5344zm1.27 4.5466h1.27v-3.4036h-1.27zm-1.27 2.413h8.5344v1.143h-4.7244v3.6068h4.9784v1.143h-8.7884zm1.27 4.7498h1.27v-3.6068h-1.27zm-1.27 2.413h8.7884v1.143h-8.7884z"/>
   <path d="m129.64 148.96 2.7432-6.8326h1.3208l-3.2004 7.9756h-8.0518v-7.9756h1.27v6.8326h1.27v-6.8326h1.27v6.8326h0.762l2.7432-6.8326h1.3208l-2.7432 6.8326zm-1.143 3.556 3.0988 7.2898h-1.3208l-3.0988-7.2898h-0.9144v7.2898h-1.27v-7.2898h-1.27v7.2898h-1.27v-8.4328h8.1788l3.5814 8.4328h-1.3208l-3.0988-7.2898z"/>
  </g>
 </g>
</svg>
