<?xml version="1.0" encoding="UTF-8"?>
<!-- Created with Inkscape (http://www.inkscape.org/) -->
<svg width="132.7mm" height="22.2mm" version="1.1" viewBox="0 0 132.7 22.2" xmlns="http://www.w3.org/2000/svg" xmlns:cc="http://creativecommons.org/ns#" xmlns:dc="http://purl.org/dc/elements/1.1/" xmlns:rdf="http://www.w3.org/1999/02/22-rdf-syntax-ns#">
 <metadata>
  <rdf:RDF>
   <cc:Work rdf:about="">
    <dc:format>image/svg+xml</dc:format>
    <dc:type rdf:resource="http://purl.org/dc/dcmitype/StillImage"/>
    <dc:title/>
   </cc:Work>
  </rdf:RDF>
 </metadata>
 <g transform="translate(-81.819 -152.85)">
  <g fill="#e40521" aria-label="Co je nového">
   <path d="m89.261 163.8v-2.2098c0-0.7874-0.254-1.1684-0.9906-1.1684h-1.651c-0.7366 0-0.9906 0.381-0.9906 1.1684v8.7376c0 0.7874 0.254 1.1684 0.9906 1.1684h1.651c0.7366 0 0.9906-0.381 0.9906-1.1684v-2.2098h3.81v1.4478c0 3.429-1.6002 5.4864-5.3086 5.4864h-0.635c-3.7084 0-5.3086-2.0574-5.3086-5.4864v-7.2136c0-3.429 1.6002-5.4864 5.3086-5.4864h0.635c3.7084 0 5.3086 2.0574 5.3086 5.4864v1.4478z"/>
   <path d="m95.114 162.35c0-3.429 1.6002-5.4864 5.3086-5.4864h0.635c3.7084 0 5.3086 2.0574 5.3086 5.4864v7.2136c0 3.429-1.6002 5.4864-5.3086 5.4864h-0.635c-3.7084 0-5.3086-2.0574-5.3086-5.4864zm7.4422-0.762c0-0.7874-0.254-1.1684-0.9906-1.1684h-1.651c-0.7366 0-0.9906 0.381-0.9906 1.1684v8.7376c0 0.7874 0.254 1.1684 0.9906 1.1684h1.651c0.7366 0 0.9906-0.381 0.9906-1.1684z"/>
   <path d="m113.72 160.68v-3.556h7.5438v3.556h-1.8034v8.636c0 3.429-1.6002 5.4864-5.3086 5.4864h-1.4478v-3.556h1.9558c0.7366 0 0.9906-0.381 0.9906-1.1684v-9.398z"/>
   <path d="m131.34 164.08v3.556h-4.7244v3.6068h4.9784v3.556h-8.7884v-17.678h8.7884v3.556h-4.9784v3.4036z"/>
   <path d="m146.93 167.28h0.1524c-0.127-1.4478-0.254-3.6322-0.254-4.826v-5.334h3.81v17.678h-3.81l-4.191-10.16h-0.1524c0.127 1.4478 0.254 3.6322 0.254 4.826v5.334h-3.81v-17.678h3.81z"/>
   <path d="m152.91 162.35c0-3.429 1.6002-5.4864 5.3086-5.4864h0.635c3.7084 0 5.3086 2.0574 5.3086 5.4864v7.2136c0 3.429-1.6002 5.4864-5.3086 5.4864h-0.635c-3.7084 0-5.3086-2.0574-5.3086-5.4864zm7.4422-0.762c0-0.7874-0.254-1.1684-0.9906-1.1684h-1.651c-0.7366 0-0.9906 0.381-0.9906 1.1684v8.7376c0 0.7874 0.254 1.1684 0.9906 1.1684h1.651c0.7366 0 0.9906-0.381 0.9906-1.1684z"/>
   <path d="m169.14 174.8-4.191-17.678h3.81l1.0414 4.826c0.3302 1.4986 0.8382 4.1148 1.1684 7.112h0.1524c0.3302-2.9972 0.8382-5.6134 1.1684-7.112l1.0414-4.826h3.81l-4.191 17.678z"/>
   <path d="m186.21 152.85-2.5654 3.2512h-3.2004l1.9558-3.2512zm0.9906 11.227v3.556h-4.7244v3.6068h4.9784v3.556h-8.7884v-17.678h8.7884v3.556h-4.9784v3.4036z"/>
   <path d="m197.17 157.12h3.81v17.678h-3.81v-7.1628h-3.6322v7.1628h-3.81v-17.678h3.81v6.9596h3.6322z"/>
   <path d="m203.26 162.35c0-3.429 1.6002-5.4864 5.3086-5.4864h0.635c3.7084 0 5.3086 2.0574 5.3086 5.4864v7.2136c0 3.429-1.6002 5.4864-5.3086 5.4864h-0.635c-3.7084 0-5.3086-2.0574-5.3086-5.4864zm7.4422-0.762c0-0.7874-0.254-1.1684-0.9906-1.1684h-1.651c-0.7366 0-0.9906 0.381-0.9906 1.1684v8.7376c0 0.7874 0.254 1.1684 0.9906 1.1684h1.651c0.7366 0 0.9906-0.381 0.9906-1.1684z"/>
  </g>
 </g>
</svg>
