<?xml version="1.0" encoding="UTF-8"?>
<!-- Created with Inkscape (http://www.inkscape.org/) -->
<svg width="105.09mm" height="22.2mm" version="1.1" viewBox="0 0 105.09 22.2" xmlns="http://www.w3.org/2000/svg" xmlns:cc="http://creativecommons.org/ns#" xmlns:dc="http://purl.org/dc/elements/1.1/" xmlns:rdf="http://www.w3.org/1999/02/22-rdf-syntax-ns#">
 <metadata>
  <rdf:RDF>
   <cc:Work rdf:about="">
    <dc:format>image/svg+xml</dc:format>
    <dc:type rdf:resource="http://purl.org/dc/dcmitype/StillImage"/>
    <dc:title/>
   </cc:Work>
  </rdf:RDF>
 </metadata>
 <g transform="translate(13.83 -176.4)">
  <g fill="#e40521" stroke-width=".26458px" aria-label="činovníci">
   <path d="m-12.001 176.4 2.921 3.2512h-1.27l-2.921-3.2512zm5.461 3.2512h-1.27l-2.921-3.2512h1.27l1.016 1.0668 1.016-1.0668h1.27l-1.651 1.8288 0.635 0.7112 2.286-2.54h1.27zm-6.0198 13.462c0 2.8194 0.9398 4.3434 4.0386 4.3434h0.635c3.0988 0 4.0386-1.524 4.0386-4.3434v-1.4478h1.27v1.4478c0 3.429-1.6002 5.4864-5.3086 5.4864h-0.635c-3.7084 0-5.3086-2.0574-5.3086-5.4864v-7.2136c0-3.429 1.6002-5.4864 5.3086-5.4864h0.635c3.7084 0 5.3086 2.0574 5.3086 5.4864v1.4478h-1.27v-1.4478c0-2.8194-0.9398-4.3434-4.0386-4.3434h-0.635c-3.0988 0-4.0386 1.524-4.0386 4.3434zm1.27-7.9756c0-1.4224 0.4572-2.3114 2.2606-2.3114h1.651c1.8034 0 2.2606 0.889 2.2606 2.3114v2.2098h-1.27v-2.2098c0-0.7874-0.254-1.1684-0.9906-1.1684h-1.651c-0.7366 0-0.9906 0.381-0.9906 1.1684v8.7376c0 0.7874 0.254 1.1684 0.9906 1.1684h1.651c0.7366 0 0.9906-0.381 0.9906-1.1684v-2.2098h1.27v2.2098c0 1.4224-0.4572 2.3114-2.2606 2.3114h-1.651c-1.8034 0-2.2606-0.889-2.2606-2.3114z"/>
   <path d="m-1.0423 180.67h7.6708v1.143h-7.6708zm0 2.413h7.6708v1.143h-1.9304v10.566h1.9304v1.143h-7.6708v-1.143h1.9304v-10.566h-1.9304zm3.2004 11.709h1.27v-10.566h-1.27zm-3.2004 2.413h7.6708v1.143h-7.6708z"/>
   <path d="m8.4013 180.67h1.27l7.8994 17.678h-1.27l-4.0894-9.1186v9.1186h-1.27v-11.989l-1.27-2.8702v14.859h-1.27zm11.709 17.678h-1.27l-7.8994-17.678h1.27l4.0894 9.1186v-9.1186h1.27v11.989l1.27 2.8702v-14.859h1.27z"/>
   <path d="m22.385 185.9c0-3.429 1.6002-5.4864 5.3086-5.4864h0.635c3.7084 0 5.3086 2.0574 5.3086 5.4864v7.2136c0 3.429-1.6002 5.4864-5.3086 5.4864h-0.635c-3.7084 0-5.3086-2.0574-5.3086-5.4864zm1.27 7.2136c0 2.8194 0.9398 4.3434 4.0386 4.3434h0.635c3.0988 0 4.0386-1.524 4.0386-4.3434v-7.2136c0-2.8194-0.9398-4.3434-4.0386-4.3434h-0.635c-3.0988 0-4.0386 1.524-4.0386 4.3434zm1.27-7.9756c0-1.4224 0.4572-2.3114 2.2606-2.3114h1.651c1.8034 0 2.2606 0.889 2.2606 2.3114v8.7376c0 1.4224-0.4572 2.3114-2.2606 2.3114h-1.651c-1.8034 0-2.2606-0.889-2.2606-2.3114zm4.9022 0c0-0.7874-0.254-1.1684-0.9906-1.1684h-1.651c-0.7366 0-0.9906 0.381-0.9906 1.1684v8.7376c0 0.7874 0.254 1.1684 0.9906 1.1684h1.651c0.7366 0 0.9906-0.381 0.9906-1.1684z"/>
   <path d="m35.692 180.67 4.191 17.678h-1.27l-4.191-17.678zm5.461 17.678-4.191-17.678h1.27l2.286 9.6266 2.286-9.6266h1.27l-2.921 12.319 0.635 2.6924 3.556-15.011h1.27l-4.191 17.678z"/>
   <path d="m48.138 180.67h1.27l7.8994 17.678h-1.27l-4.0894-9.1186v9.1186h-1.27v-11.989l-1.27-2.8702v14.859h-1.27zm11.709 17.678h-1.27l-7.8994-17.678h1.27l4.0894 9.1186v-9.1186h1.27v11.989l1.27 2.8702v-14.859h1.27z"/>
   <path d="m66.186 176.4-1.9558 3.2512h-1.27l1.9558-3.2512zm2.54 0-1.9558 3.2512h-1.27l1.9558-3.2512zm-7.112 4.2672h7.6708v1.143h-7.6708zm0 2.413h7.6708v1.143h-1.9304v10.566h1.9304v1.143h-7.6708v-1.143h1.9304v-10.566h-1.9304zm3.2004 11.709h1.27v-10.566h-1.27zm-3.2004 2.413h7.6708v1.143h-7.6708z"/>
   <path d="m72.074 193.11c0 2.8194 0.9398 4.3434 4.0386 4.3434h0.635c3.0988 0 4.0386-1.524 4.0386-4.3434v-1.4478h1.27v1.4478c0 3.429-1.6002 5.4864-5.3086 5.4864h-0.635c-3.7084 0-5.3086-2.0574-5.3086-5.4864v-7.2136c0-3.429 1.6002-5.4864 5.3086-5.4864h0.635c3.7084 0 5.3086 2.0574 5.3086 5.4864v1.4478h-1.27v-1.4478c0-2.8194-0.9398-4.3434-4.0386-4.3434h-0.635c-3.0988 0-4.0386 1.524-4.0386 4.3434zm1.27-7.9756c0-1.4224 0.4572-2.3114 2.2606-2.3114h1.651c1.8034 0 2.2606 0.889 2.2606 2.3114v2.2098h-1.27v-2.2098c0-0.7874-0.254-1.1684-0.9906-1.1684h-1.651c-0.7366 0-0.9906 0.381-0.9906 1.1684v8.7376c0 0.7874 0.254 1.1684 0.9906 1.1684h1.651c0.7366 0 0.9906-0.381 0.9906-1.1684v-2.2098h1.27v2.2098c0 1.4224-0.4572 2.3114-2.2606 2.3114h-1.651c-1.8034 0-2.2606-0.889-2.2606-2.3114z"/>
   <path d="m83.591 180.67h7.6708v1.143h-7.6708zm0 2.413h7.6708v1.143h-1.9304v10.566h1.9304v1.143h-7.6708v-1.143h1.9304v-10.566h-1.9304zm3.2004 11.709h1.27v-10.566h-1.27zm-3.2004 2.413h7.6708v1.143h-7.6708z"/>
  </g>
 </g>
</svg>
