<?xml version="1.0" encoding="UTF-8"?>
<!-- Created with Inkscape (http://www.inkscape.org/) -->
<svg width="84.192mm" height="18.186mm" version="1.1" viewBox="0 0 84.192 18.186" xmlns="http://www.w3.org/2000/svg" xmlns:cc="http://creativecommons.org/ns#" xmlns:dc="http://purl.org/dc/elements/1.1/" xmlns:rdf="http://www.w3.org/1999/02/22-rdf-syntax-ns#">
 <metadata>
  <rdf:RDF>
   <cc:Work rdf:about="">
    <dc:format>image/svg+xml</dc:format>
    <dc:type rdf:resource="http://purl.org/dc/dcmitype/StillImage"/>
    <dc:title/>
   </cc:Work>
  </rdf:RDF>
 </metadata>
 <g transform="translate(-33.425 -142.1)">
  <g fill="#ff1d23" stroke-width=".26458px" aria-label="KONTAKT">
   <path d="m41.248 160.03h3.937l-3.9116-9.1948 3.4036-8.4836h-3.937l-2.7432 6.8326h-0.762v-6.8326h-3.81v17.678h3.81v-7.2898h0.9144z"/>
   <path d="m45.722 147.59c0-3.429 1.6002-5.4864 5.3086-5.4864h0.635c3.7084 0 5.3086 2.0574 5.3086 5.4864v7.2136c0 3.429-1.6002 5.4864-5.3086 5.4864h-0.635c-3.7084 0-5.3086-2.0574-5.3086-5.4864zm7.4422-0.762c0-0.7874-0.254-1.1684-0.9906-1.1684h-1.651c-0.7366 0-0.9906 0.381-0.9906 1.1684v8.7376c0 0.7874 0.254 1.1684 0.9906 1.1684h1.651c0.7366 0 0.9906-0.381 0.9906-1.1684z"/>
   <path d="m67.272 152.51h0.1524c-0.127-1.4478-0.254-3.6322-0.254-4.826v-5.334h3.81v17.678h-3.81l-4.191-10.16h-0.1524c0.127 1.4478 0.254 3.6322 0.254 4.826v5.334h-3.81v-17.678h3.81z"/>
   <path d="m75.566 160.03v-14.122h-2.8194v-3.556h9.4488v3.556h-2.8194v14.122z"/>
   <path d="m86.014 157.21-0.5334 2.8194h-3.81l4.191-17.678h3.81l4.191 17.678h-3.81l-0.5334-2.8194zm2.8448-3.556c-0.3556-1.8542-0.7874-3.8862-1.016-5.5626h-0.1524c-0.2286 1.6764-0.6604 3.7084-1.016 5.5626z"/>
   <path d="m103.21 160.03h3.937l-3.9116-9.1948 3.4036-8.4836h-3.937l-2.7432 6.8326h-0.762v-6.8326h-3.81v17.678h3.81v-7.2898h0.9144z"/>
   <path d="m110.99 160.03v-14.122h-2.8194v-3.556h9.4488v3.556h-2.8194v14.122z"/>
  </g>
 </g>
</svg>
