<?xml version="1.0" encoding="UTF-8"?>
<!-- Created with Inkscape (http://www.inkscape.org/) -->
<svg width="98.053mm" height="7.3999mm" version="1.1" viewBox="0 0 98.053 7.3999" xmlns="http://www.w3.org/2000/svg" xmlns:cc="http://creativecommons.org/ns#" xmlns:dc="http://purl.org/dc/elements/1.1/" xmlns:rdf="http://www.w3.org/1999/02/22-rdf-syntax-ns#"><metadata><rdf:RDF><cc:Work rdf:about=""><dc:format>image/svg+xml</dc:format><dc:type rdf:resource="http://purl.org/dc/dcmitype/StillImage"/><dc:title/></cc:Work></rdf:RDF></metadata><g transform="translate(-47.71 -142.27)"><g style="fill:#000000" aria-label="Vypnutí aplikace pro členy"><path d="m49.107 149.59-1.397-5.8928h1.27l.34713 1.6087c.11007.49953.2794 1.3716.38947 2.3707h.0508c.11007-.99906.2794-1.8711.38947-2.3707l.34713-1.6087h1.27l-1.397 5.8928z" style="fill:#e40521;stroke-width:.26458"/><path d="m53.213 149.59v-1.524l-1.3547-4.3688h1.27l.27093.9652c.13547.49107.29633 1.2023.42333 1.8627h.0508c.127-.6604.28787-1.3716.42333-1.8627l.27093-.9652h1.27l-1.3547 4.3688v1.524z" style="fill:#e40521;stroke-width:.26458"/><path d="m57.537 149.59h-1.27v-5.8928h1.9812c1.2361 0 1.7695.6858 1.7695 1.8288v.49107c0 1.143-.5334 1.8288-1.7695 1.8288h-.7112zm0-2.9295h.88053c.24553 0 .3302-.127.3302-.38946v-.99907c0-.26247-.08467-.38947-.3302-.38947h-.88053z" style="fill:#e40521;stroke-width:.26458"/><path d="m63.283 147.08h.0508c-.04233-.4826-.08467-1.2107-.08467-1.6087v-1.778h1.27v5.8928h-1.27l-1.397-3.3867h-.0508c.04233.4826.08467 1.2107.08467 1.6087v1.778h-1.27v-5.8928h1.27z" style="fill:#e40521;stroke-width:.26458"/><path d="m66.547 143.7v4.4027c0 .26246.08467.38946.3302.38946h.55033c.24553 0 .3302-.127.3302-.38946v-4.4027h1.27v4.1487c0 1.143-.5334 1.8288-1.7695 1.8288h-.21167c-1.2361 0-1.7695-.6858-1.7695-1.8288v-4.1487z" style="fill:#e40521;stroke-width:.26458"/><path d="m70.48 149.59v-4.7075h-.9398v-1.1853h3.1496v1.1853h-.9398v4.7075z" style="fill:#e40521;stroke-width:.26458"/><path d="m75.611 142.27-.85513 1.0837h-1.0668l.65193-1.0837zm-1.9389 2.6077h-.64347v-1.1853h2.5569v1.1853h-.64347v3.5221h.64347v1.1853h-2.5569v-1.1853h.64347z" style="fill:#e40521;stroke-width:.26458"/><path d="m78.973 148.65-.1778.9398h-1.27l1.397-5.8928h1.27l1.397 5.8928h-1.27l-.1778-.9398zm.94827-1.1853c-.11853-.61807-.26247-1.2954-.33867-1.8542h-.0508c-.0762.5588-.22013 1.2361-.33867 1.8542z" style="fill:#e40521;stroke-width:.26458"/><path d="m83.367 149.59h-1.27v-5.8928h1.9812c1.2361 0 1.7695.6858 1.7695 1.8288v.49107c0 1.143-.5334 1.8288-1.7695 1.8288h-.7112zm0-2.9295h.88053c.24553 0 .3302-.127.3302-.38946v-.99907c0-.26247-.08467-.38947-.3302-.38947h-.88053z" style="fill:#e40521;stroke-width:.26458"/><path d="m87.716 148.4h1.4055v1.1853h-2.6755v-5.8928h1.27z" style="fill:#e40521;stroke-width:.26458"/><path d="m90.192 144.88h-.64347v-1.1853h2.5569v1.1853h-.64347v3.5221h.64347v1.1853h-2.5569v-1.1853h.64347z" style="fill:#e40521;stroke-width:.26458"/><path d="m95.304 149.59h1.3123l-1.3039-3.0649 1.1345-2.8279h-1.3123l-.9144 2.2775h-.254v-2.2775h-1.27v5.8928h1.27v-2.4299h.3048z" style="fill:#e40521;stroke-width:.26458"/><path d="m98.32 148.65-.1778.9398h-1.27l1.397-5.8928h1.27l1.397 5.8928h-1.27l-.1778-.9398zm.94827-1.1853c-.11853-.61807-.26247-1.2954-.33867-1.8542h-.0508c-.0762.5588-.22013 1.2361-.33867 1.8542z" style="fill:#e40521;stroke-width:.26458"/><path d="m103.68 145.92v-.7366c0-.26246-.0847-.38946-.3302-.38946h-.55034c-.24553 0-.3302.127-.3302.38946v2.9125c0 .26246.0847.38946.3302.38946h.55034c.24553 0 .3302-.127.3302-.38946v-.7366h1.27v.4826c0 1.143-.5334 1.8288-1.7695 1.8288h-.21166c-1.2361 0-1.7695-.6858-1.7695-1.8288v-2.4045c0-1.143.5334-1.8288 1.7695-1.8288h.21166c1.2361 0 1.7695.6858 1.7695 1.8288v.4826z" style="fill:#e40521;stroke-width:.26458"/><path d="m108.56 146.02v1.1853h-1.5748v1.2023h1.6595v1.1853h-2.9295v-5.8928h2.9295v1.1853h-1.6595v1.1345z" style="fill:#e40521;stroke-width:.26458"/><path d="m112.36 149.59h-1.27v-5.8928h1.9812c1.2361 0 1.7695.6858 1.7695 1.8288v.49107c0 1.143-.5334 1.8288-1.7695 1.8288h-.7112zm0-2.9295h.88053c.24554 0 .3302-.127.3302-.38946v-.99907c0-.26247-.0847-.38947-.3302-.38947h-.88053z" style="fill:#e40521;stroke-width:.26458"/><path d="m119.27 149.59-.79587-2.1675c.49107-.29633.7112-.8382.7112-1.5748v-.32173c0-1.143-.5334-1.8288-1.7695-1.8288h-1.9812v5.8928h1.27v-1.9135h.5842l.66886 1.9135zm-2.5654-4.7075h.88053c.24553 0 .3302.127.3302.38947v.82973c0 .26247-.0847.38947-.3302.38947h-.88053z" style="fill:#e40521;stroke-width:.26458"/><path d="m119.78 145.44c0-1.143.5334-1.8288 1.7695-1.8288h.21167c1.2361 0 1.7695.6858 1.7695 1.8288v2.4045c0 1.143-.5334 1.8288-1.7695 1.8288h-.21167c-1.2361 0-1.7695-.6858-1.7695-1.8288zm2.4807-.254c0-.26246-.0847-.38946-.3302-.38946h-.55033c-.24553 0-.3302.127-.3302.38946v2.9125c0 .26246.0847.38946.3302.38946h.55033c.24554 0 .3302-.127.3302-.38946z" style="fill:#e40521;stroke-width:.26458"/><path d="m127.21 143.36-.97366-1.0837h1.1261l.4064.3556.41487-.3556h1.1261l-.97367 1.0837zm1.1684 2.5654v-.7366c0-.26246-.0847-.38946-.3302-.38946h-.55033c-.24553 0-.3302.127-.3302.38946v2.9125c0 .26246.0847.38946.3302.38946h.55033c.24554 0 .3302-.127.3302-.38946v-.7366h1.27v.4826c0 1.143-.5334 1.8288-1.7695 1.8288h-.21167c-1.2361 0-1.7695-.6858-1.7695-1.8288v-2.4045c0-1.143.5334-1.8288 1.7695-1.8288h.21167c1.2361 0 1.7695.6858 1.7695 1.8288v.4826z" style="fill:#e40521;stroke-width:.26458"/><path d="m131.69 148.4h1.4055v1.1853h-2.6755v-5.8928h1.27z" style="fill:#e40521;stroke-width:.26458"/><path d="m136.62 146.02v1.1853h-1.5748v1.2023h1.6595v1.1853h-2.9295v-5.8928h2.9295v1.1853h-1.6595v1.1345z" style="fill:#e40521;stroke-width:.26458"/><path d="m140.13 147.08h.0508c-.0423-.4826-.0847-1.2107-.0847-1.6087v-1.778h1.27v5.8928h-1.27l-1.397-3.3867h-.0508c.0423.4826.0847 1.2107.0847 1.6087v1.778h-1.27v-5.8928h1.27z" style="fill:#e40521;stroke-width:.26458"/><path d="m143.14 149.59v-1.524l-1.3547-4.3688h1.27l.27094.9652c.13546.49107.29633 1.2023.42333 1.8627h.0508c.127-.6604.28787-1.3716.42333-1.8627l.27094-.9652h1.27l-1.3547 4.3688v1.524z" style="fill:#e40521;stroke-width:.26458"/></g></g></svg>
