<?xml version="1.0" encoding="UTF-8"?>
<!-- Created with Inkscape (http://www.inkscape.org/) -->
<svg width="294mm" height="22.2mm" version="1.1" viewBox="0 0 294 22.2" xmlns="http://www.w3.org/2000/svg" xmlns:cc="http://creativecommons.org/ns#" xmlns:dc="http://purl.org/dc/elements/1.1/" xmlns:rdf="http://www.w3.org/1999/02/22-rdf-syntax-ns#">
 <metadata>
  <rdf:RDF>
   <cc:Work rdf:about="">
    <dc:format>image/svg+xml</dc:format>
    <dc:type rdf:resource="http://purl.org/dc/dcmitype/StillImage"/>
    <dc:title/>
   </cc:Work>
  </rdf:RDF>
 </metadata>
 <g transform="translate(41.169 -137.73)">
  <g fill="#e40521" stroke-width=".26458px" aria-label="oddíl florbalu – přípravka">
   <path d="m-41.169 147.23c0-3.429 1.6002-5.4864 5.3086-5.4864h0.635c3.7084 0 5.3086 2.0574 5.3086 5.4864v7.2136c0 3.429-1.6002 5.4864-5.3086 5.4864h-0.635c-3.7084 0-5.3086-2.0574-5.3086-5.4864zm7.4422-0.762c0-0.7874-0.254-1.1684-0.9906-1.1684h-1.651c-0.7366 0-0.9906 0.381-0.9906 1.1684v8.7376c0 0.7874 0.254 1.1684 0.9906 1.1684h1.651c0.7366 0 0.9906-0.381 0.9906-1.1684z"/>
   <path d="m-21.549 142c3.7084 0 5.3086 2.0574 5.3086 5.4864v6.7056c0 3.429-1.6002 5.4864-5.3086 5.4864h-6.0706v-17.678zm-2.2606 3.556v10.566h2.7686c0.7366 0 0.9906-0.381 0.9906-1.1684v-8.2296c0-0.7874-0.254-1.1684-0.9906-1.1684z"/>
   <path d="m-7.9067 142c3.7084 0 5.3086 2.0574 5.3086 5.4864v6.7056c0 3.429-1.6002 5.4864-5.3086 5.4864h-6.0706v-17.678zm-2.2606 3.556v10.566h2.7686c0.7366 0 0.9906-0.381 0.9906-1.1684v-8.2296c0-0.7874-0.254-1.1684-0.9906-1.1684z"/>
   <path d="m6.6503 137.73-2.5654 3.2512h-3.2004l1.9558-3.2512zm-5.8166 7.8232h-1.9304v-3.556h7.6708v3.556h-1.9304v10.566h1.9304v3.556h-7.6708v-3.556h1.9304z"/>
   <path d="m12.157 156.12h4.2164v3.556h-8.0264v-17.678h3.81z"/>
   <path d="m32.012 149.21v3.556h-4.7244v6.9088h-3.81v-17.678h8.7884v3.556h-4.9784v3.6576z"/>
   <path d="m38.351 156.12h4.2164v3.556h-8.0264v-17.678h3.81z"/>
   <path d="m44.109 147.23c0-3.429 1.6002-5.4864 5.3086-5.4864h0.635c3.7084 0 5.3086 2.0574 5.3086 5.4864v7.2136c0 3.429-1.6002 5.4864-5.3086 5.4864h-0.635c-3.7084 0-5.3086-2.0574-5.3086-5.4864zm7.4422-0.762c0-0.7874-0.254-1.1684-0.9906-1.1684h-1.651c-0.7366 0-0.9906 0.381-0.9906 1.1684v8.7376c0 0.7874 0.254 1.1684 0.9906 1.1684h1.651c0.7366 0 0.9906-0.381 0.9906-1.1684z"/>
   <path d="m69.165 159.68-2.3876-6.5024c1.4732-0.889 2.1336-2.5146 2.1336-4.7244v-0.9652c0-3.429-1.6002-5.4864-5.3086-5.4864h-5.9436v17.678h3.81v-5.7404h1.7526l2.0066 5.7404zm-7.6962-14.122h2.6416c0.7366 0 0.9906 0.381 0.9906 1.1684v2.4892c0 0.7874-0.254 1.1684-0.9906 1.1684h-2.6416z"/>
   <path d="m80.377 150.71c1.7526 0.8636 2.0828 2.54 2.0828 3.8862v0.6096c0 2.921-1.6002 4.4704-5.3086 4.4704h-6.1976v-17.678h5.9436c3.7084 0 5.3086 1.5494 5.3086 4.4704v0.7112c0 1.1684-0.254 2.7178-1.8288 3.5306zm-5.6134-1.4986h2.6416c0.7366 0 0.9906-0.381 0.9906-1.1684v-1.3208c0-0.7874-0.254-1.1684-0.9906-1.1684h-2.6416zm0 3.3528v3.556h2.8956c0.7366 0 0.9906-0.381 0.9906-1.1684v-1.2192c0-0.7874-0.254-1.1684-0.9906-1.1684z"/>
   <path d="m87.577 156.86-0.5334 2.8194h-3.81l4.191-17.678h3.81l4.191 17.678h-3.81l-0.5334-2.8194zm2.8448-3.556c-0.3556-1.8542-0.7874-3.8862-1.016-5.5626h-0.1524c-0.2286 1.6764-0.6604 3.7084-1.016 5.5626z"/>
   <path d="m100.76 156.12h4.2164v3.556h-8.0264v-17.678h3.81z"/>
   <path d="m110.33 142v13.208c0 0.7874 0.254 1.1684 0.9906 1.1684h1.651c0.7366 0 0.9906-0.381 0.9906-1.1684v-13.208h3.81v12.446c0 3.429-1.6002 5.4864-5.3086 5.4864h-0.635c-3.7084 0-5.3086-2.0574-5.3086-5.4864v-12.446z"/>
   <path d="m135.29 148.96v3.556h-10.16v-3.556z"/>
   <path d="m146.7 159.68h-3.81v-17.678h5.9436c3.7084 0 5.3086 2.0574 5.3086 5.4864v1.4732c0 3.429-1.6002 5.4864-5.3086 5.4864h-2.1336zm0-8.7884h2.6416c0.7366 0 0.9906-0.381 0.9906-1.1684v-2.9972c0-0.7874-0.254-1.1684-0.9906-1.1684h-2.6416z"/>
   <path d="m162.62 140.98 2.921-3.2512h-3.3782l-1.2446 1.0668-1.2192-1.0668h-3.3782l2.921 3.2512zm4.826 18.694-2.3876-6.5024c1.4732-0.889 2.1336-2.5146 2.1336-4.7244v-0.9652c0-3.429-1.6002-5.4864-5.3086-5.4864h-5.9436v17.678h3.81v-5.7404h1.7526l2.0066 5.7404zm-7.6962-14.122h2.6416c0.7366 0 0.9906 0.381 0.9906 1.1684v2.4892c0 0.7874-0.254 1.1684-0.9906 1.1684h-2.6416z"/>
   <path d="m176.22 137.73-2.5654 3.2512h-3.2004l1.9558-3.2512zm-5.8166 7.8232h-1.9304v-3.556h7.6708v3.556h-1.9304v10.566h1.9304v3.556h-7.6708v-3.556h1.9304z"/>
   <path d="m181.72 159.68h-3.81v-17.678h5.9436c3.7084 0 5.3086 2.0574 5.3086 5.4864v1.4732c0 3.429-1.6002 5.4864-5.3086 5.4864h-2.1336zm0-8.7884h2.6416c0.7366 0 0.9906-0.381 0.9906-1.1684v-2.9972c0-0.7874-0.254-1.1684-0.9906-1.1684h-2.6416z"/>
   <path d="m202.47 159.68-2.3876-6.5024c1.4732-0.889 2.1336-2.5146 2.1336-4.7244v-0.9652c0-3.429-1.6002-5.4864-5.3086-5.4864h-5.9436v17.678h3.81v-5.7404h1.7526l2.0066 5.7404zm-7.6962-14.122h2.6416c0.7366 0 0.9906 0.381 0.9906 1.1684v2.4892c0 0.7874-0.254 1.1684-0.9906 1.1684h-2.6416z"/>
   <path d="m207.58 156.86-0.5334 2.8194h-3.81l4.191-17.678h3.81l4.191 17.678h-3.81l-0.5334-2.8194zm2.8448-3.556c-0.3556-1.8542-0.7874-3.8862-1.016-5.5626h-0.1524c-0.2286 1.6764-0.6604 3.7084-1.016 5.5626z"/>
   <path d="m218.59 159.68-4.191-17.678h3.81l1.0414 4.826c0.3302 1.4986 0.8382 4.1148 1.1684 7.112h0.1524c0.3302-2.9972 0.8382-5.6134 1.1684-7.112l1.0414-4.826h3.81l-4.191 17.678z"/>
   <path d="m235.94 159.68h3.937l-3.9116-9.1948 3.4036-8.4836h-3.937l-2.7432 6.8326h-0.762v-6.8326h-3.81v17.678h3.81v-7.2898h0.9144z"/>
   <path d="m244.99 156.86-0.5334 2.8194h-3.81l4.191-17.678h3.81l4.191 17.678h-3.81l-0.5334-2.8194zm2.8448-3.556c-0.3556-1.8542-0.7874-3.8862-1.016-5.5626h-0.1524c-0.2286 1.6764-0.6604 3.7084-1.016 5.5626z"/>
  </g>
 </g>
</svg>
