<?xml version="1.0" encoding="UTF-8"?>
<!-- Created with Inkscape (http://www.inkscape.org/) -->
<svg width="772.29pt" height="198.42pt" version="1.1" viewBox="0 0 272.45 69.997" xmlns="http://www.w3.org/2000/svg" xmlns:cc="http://creativecommons.org/ns#" xmlns:dc="http://purl.org/dc/elements/1.1/" xmlns:rdf="http://www.w3.org/1999/02/22-rdf-syntax-ns#">
 <metadata>
  <rdf:RDF>
   <cc:Work rdf:about="">
    <dc:format>image/svg+xml</dc:format>
    <dc:type rdf:resource="http://purl.org/dc/dcmitype/StillImage"/>
    <dc:title/>
   </cc:Work>
  </rdf:RDF>
 </metadata>
 <g transform="translate(-68.686 -26.27)">
  <g transform="translate(0,-1.5875)" aria-label="ŽUPA BARÁKOVA">
   <g fill="#fff" stroke-width=".26458px" aria-label="sokol šestajovice">
    <path d="m143.78 72.689c-3.7084 0-5.3086-1.8034-5.3086-5.2324v-0.9398h3.81v1.4478c0 0.7874 0.254 1.1684 0.9906 1.1684h1.524c0.7366 0 0.9906-0.381 0.9906-1.1684v-0.9906c0-2.3876-7.4422-0.8382-7.4422-6.7564v-0.4826c0-3.175 1.6002-5.2324 5.3086-5.2324h0.508c3.7084 0 5.3086 1.8034 5.3086 5.2324v0.9398h-3.81v-1.4478c0-0.7874-0.254-1.1684-0.9906-1.1684h-1.524c-0.7366 0-0.9906 0.381-0.9906 1.1684v0.9906c0 2.3622 7.4422 0.8382 7.4422 6.7564v0.4826c0 3.175-1.6002 5.2324-5.3086 5.2324z"/>
    <path d="m151.64 59.989c0-3.429 1.6002-5.4864 5.3086-5.4864h0.635c3.7084 0 5.3086 2.0574 5.3086 5.4864v7.2136c0 3.429-1.6002 5.4864-5.3086 5.4864h-0.635c-3.7084 0-5.3086-2.0574-5.3086-5.4864zm7.4422-0.762c0-0.7874-0.254-1.1684-0.9906-1.1684h-1.651c-0.7366 0-0.9906 0.381-0.9906 1.1684v8.7376c0 0.7874 0.254 1.1684 0.9906 1.1684h1.651c0.7366 0 0.9906-0.381 0.9906-1.1684z"/>
    <path d="m173.02 72.435h3.937l-3.9116-9.1948 3.4036-8.4836h-3.937l-2.7432 6.8326h-0.762v-6.8326h-3.81v17.678h3.81v-7.2898h0.9144z"/>
    <path d="m177.49 59.989c0-3.429 1.6002-5.4864 5.3086-5.4864h0.635c3.7084 0 5.3086 2.0574 5.3086 5.4864v7.2136c0 3.429-1.6002 5.4864-5.3086 5.4864h-0.635c-3.7084 0-5.3086-2.0574-5.3086-5.4864zm7.4422-0.762c0-0.7874-0.254-1.1684-0.9906-1.1684h-1.651c-0.7366 0-0.9906 0.381-0.9906 1.1684v8.7376c0 0.7874 0.254 1.1684 0.9906 1.1684h1.651c0.7366 0 0.9906-0.381 0.9906-1.1684z"/>
    <path d="m194.85 68.879h4.2164v3.556h-8.0264v-17.678h3.81z"/>
    <path d="m209.85 53.74-2.921-3.2512h3.3782l1.2192 1.0668 1.2446-1.0668h3.3782l-2.921 3.2512zm1.4986 18.948c-3.7084 0-5.3086-1.8034-5.3086-5.2324v-0.9398h3.81v1.4478c0 0.7874 0.254 1.1684 0.9906 1.1684h1.524c0.7366 0 0.9906-0.381 0.9906-1.1684v-0.9906c0-2.3876-7.4422-0.8382-7.4422-6.7564v-0.4826c0-3.175 1.6002-5.2324 5.3086-5.2324h0.508c3.7084 0 5.3086 1.8034 5.3086 5.2324v0.9398h-3.81v-1.4478c0-0.7874-0.254-1.1684-0.9906-1.1684h-1.524c-0.7366 0-0.9906 0.381-0.9906 1.1684v0.9906c0 2.3622 7.4422 0.8382 7.4422 6.7564v0.4826c0 3.175-1.6002 5.2324-5.3086 5.2324z"/>
    <path d="m228 61.716v3.556h-4.7244v3.6068h4.9784v3.556h-8.7884v-17.678h8.7884v3.556h-4.9784v3.4036z"/>
    <path d="m235.71 72.689c-3.7084 0-5.3086-1.8034-5.3086-5.2324v-0.9398h3.81v1.4478c0 0.7874 0.254 1.1684 0.9906 1.1684h1.524c0.7366 0 0.9906-0.381 0.9906-1.1684v-0.9906c0-2.3876-7.4422-0.8382-7.4422-6.7564v-0.4826c0-3.175 1.6002-5.2324 5.3086-5.2324h0.508c3.7084 0 5.3086 1.8034 5.3086 5.2324v0.9398h-3.81v-1.4478c0-0.7874-0.254-1.1684-0.9906-1.1684h-1.524c-0.7366 0-0.9906 0.381-0.9906 1.1684v0.9906c0 2.3622 7.4422 0.8382 7.4422 6.7564v0.4826c0 3.175-1.6002 5.2324-5.3086 5.2324z"/>
    <path d="m245.38 72.435v-14.122h-2.8194v-3.556h9.4488v3.556h-2.8194v14.122z"/>
    <path d="m255.83 69.615-0.5334 2.8194h-3.81l4.191-17.678h3.81l4.191 17.678h-3.81l-0.5334-2.8194zm2.8448-3.556c-0.3556-1.8542-0.7874-3.8862-1.016-5.5626h-0.1524c-0.2286 1.6764-0.6604 3.7084-1.016 5.5626z"/>
    <path d="m265.2 58.312v-3.556h7.5438v3.556h-1.8034v8.636c0 3.429-1.6002 5.4864-5.3086 5.4864h-1.4478v-3.556h1.9558c0.7366 0 0.9906-0.381 0.9906-1.1684v-9.398z"/>
    <path d="m274.03 59.989c0-3.429 1.6002-5.4864 5.3086-5.4864h0.635c3.7084 0 5.3086 2.0574 5.3086 5.4864v7.2136c0 3.429-1.6002 5.4864-5.3086 5.4864h-0.635c-3.7084 0-5.3086-2.0574-5.3086-5.4864zm7.4422-0.762c0-0.7874-0.254-1.1684-0.9906-1.1684h-1.651c-0.7366 0-0.9906 0.381-0.9906 1.1684v8.7376c0 0.7874 0.254 1.1684 0.9906 1.1684h1.651c0.7366 0 0.9906-0.381 0.9906-1.1684z"/>
    <path d="m290.26 72.435-4.191-17.678h3.81l1.0414 4.826c0.3302 1.4986 0.8382 4.1148 1.1684 7.112h0.1524c0.3302-2.9972 0.8382-5.6134 1.1684-7.112l1.0414-4.826h3.81l-4.191 17.678z"/>
    <path d="m300.95 58.312h-1.9304v-3.556h7.6708v3.556h-1.9304v10.566h1.9304v3.556h-7.6708v-3.556h1.9304z"/>
    <path d="m315.65 61.437v-2.2098c0-0.7874-0.254-1.1684-0.9906-1.1684h-1.651c-0.7366 0-0.9906 0.381-0.9906 1.1684v8.7376c0 0.7874 0.254 1.1684 0.9906 1.1684h1.651c0.7366 0 0.9906-0.381 0.9906-1.1684v-2.2098h3.81v1.4478c0 3.429-1.6002 5.4864-5.3086 5.4864h-0.635c-3.7084 0-5.3086-2.0574-5.3086-5.4864v-7.2136c0-3.429 1.6002-5.4864 5.3086-5.4864h0.635c3.7084 0 5.3086 2.0574 5.3086 5.4864v1.4478z"/>
    <path d="m330.29 61.716v3.556h-4.7244v3.6068h4.9784v3.556h-8.7884v-17.678h8.7884v3.556h-4.9784v3.4036z"/>
   </g>
  </g>
  <g transform="translate(27.549 2.6727)">
   <g transform="matrix(.35278 0 0 -.35278 76.14 83.011)">
    <path d="m0 0c38.1 0 69.203 31.1 69.203 69.215s-31.103 69.202-69.203 69.202c-38.129 0-69.218-31.087-69.218-69.202s31.089-69.215 69.218-69.215" fill="#ed1c24"/>
   </g>
   <g transform="matrix(.35278 0 0 -.35278 76.113 82.078)">
    <path d="m0 0c36.686 0 66.629 29.933 66.629 66.644 0 36.688-29.943 66.619-66.629 66.619-36.698 0-66.644-29.931-66.644-66.619 0-36.711 29.946-66.644 66.644-66.644" fill="#fff"/>
   </g>
   <g transform="matrix(.35278 0 0 -.35278 76.205 80.184)">
    <path d="m0 0c33.844 0 61.447 27.604 61.447 61.448 0 33.845-27.603 61.449-61.447 61.449-33.858 0-61.46-27.604-61.46-61.449 0-33.844 27.602-61.448 61.46-61.448" fill="#ed1c24"/>
   </g>
   <g transform="matrix(.35278 0 0 -.35278 91.822 51.759)">
    <path d="m0 0-12.086 0.01 0.018 28.163-10.418-0.017v-32.994c-0.948 1.471-2.063 2.864-3.385 4.158-2.264 2.218-4.774 3.904-7.506 5.022-2.744 1.119-5.721 1.685-8.912 1.685-3.152 0-6.078-0.566-8.772-1.672-2.695-1.122-5.171-2.77-7.423-4.971-2.327-2.291-4.112-4.886-5.342-7.79-1.233-2.893-1.834-5.946-1.834-9.133 0-4.736 1.105-8.938 3.273-12.625l-8.119-9.775-0.022 14.515-10.924-4e-3 0.035-37.777 10.534 0.027-0.02 12.556c0.912-0.122 0.873 0.014 1.022-0.222 6.453-9.98 14.744-15.052 23.729-17.376 18.226-4.714 37.267 8.577 37.978 28.171-0.144 18.73-12.707 22.166-37.037 34.668-4.824-1.29-11.394-7.484-8.631-17.169 9.358-3.77 20.299-8.383 25.727-14.738 8e-3 -7e-3 8e-3 -0.021 0.01-0.026 1.023-0.927 2.003-3.149 2.271-4.499 0.016-0.067 0.047-0.269 0.059-0.348 0.043-0.183 0.078-0.407 0.084-0.486 0.015-0.199 0.039-0.358 0.043-0.56 0-0.119 0.015-0.063 0.015-0.186-6e-3 -0.105 0.022-0.214 0.014-0.324-6e-3 -0.638-0.016-1.267-0.125-1.933-1.86-11.185-21.377-23.729-36.553 4.026l4.764 5.577c4.207-3.724 9.263-5.6 15.172-5.6 3.435 0 6.621 0.651 9.562 1.956 0.957 0.42 1.869 0.933 2.762 1.486-2.133 2.324-5.475 4.844-8.557 6.537-1.226-0.367-2.502-0.615-3.877-0.615-3.939 0-7.25 1.404-9.933 4.184-2.682 2.794-4.024 6.263-4.024 10.362 0 2.069 0.467 4.088 1.377 6.053 0.924 1.971 2.192 3.645 3.805 5 1.23 1.032 2.572 1.82 4.025 2.364 1.436 0.529 2.953 0.797 4.514 0.797 3.826 0 7.115-1.39 9.846-4.171 0.988-1.009 1.734-2.115 2.363-3.264 3.416-1.768 8.844-4.442 11.656-6.581v0c0 3.273-0.594 6.326-1.771 9.17-0.155 0.377-0.35 0.738-0.524 1.105l21.061-0.012zm-67.061-13.01c1.135 8.759 7.87 14.386 9.653 15.733-0.612 2.222-1.053 5.23-0.789 7.23 1.24 9.379 9.631 12.863 18.148 11.348 5.836-1.046 11.324-5.008 15.51-9.587 0.053-0.06 0.103-0.093 0.156-0.15l-0.027 13.977c-19.024 13.639-38.067 8.19-46.676-3.883-5.082-7.127-5.995-16.873-2.731-25.806 1.186-3.285 3.414-6.443 6.756-8.862" fill="#fff"/>
   </g>
  </g>
 </g>
</svg>
