<?xml version="1.0" encoding="UTF-8"?>
<!-- Created with Inkscape (http://www.inkscape.org/) -->
<svg width="309.94pt" height="62.928pt" version="1.1" viewBox="0 0 109.34 22.2" xmlns="http://www.w3.org/2000/svg" xmlns:cc="http://creativecommons.org/ns#" xmlns:dc="http://purl.org/dc/elements/1.1/" xmlns:rdf="http://www.w3.org/1999/02/22-rdf-syntax-ns#">
 <metadata>
  <rdf:RDF>
   <cc:Work rdf:about="">
    <dc:format>image/svg+xml</dc:format>
    <dc:type rdf:resource="http://purl.org/dc/dcmitype/StillImage"/>
    <dc:title/>
   </cc:Work>
  </rdf:RDF>
 </metadata>
 <g transform="translate(-74.397 -178.34)">
  <g aria-label="chceš nás podpořit? staň se naším členem!">
   <g fill="#e40521" stroke-width=".26458px" aria-label="příspěvky">
    <path d="m78.207 200.29h-1.27v-5.2324h-1.27v5.2324h-1.27v-6.3754h5.9436c3.0988 0 4.0386-1.524 4.0386-4.3434v-1.4732c0-2.8194-0.9398-4.3434-4.0386-4.3434h-5.9436v-1.143h5.9436c3.7084 0 5.3086 2.0574 5.3086 5.4864v1.4732c0 3.429-1.6002 5.4864-5.3086 5.4864h-2.1336zm-3.81-15.265h6.4516c1.8034 0 2.2606 0.889 2.2606 2.3114v2.9972c0 1.4224-0.4572 2.3114-2.2606 2.3114h-6.4516zm2.54 1.143h-1.27v5.334h1.27zm1.27 5.334h2.6416c0.7366 0 0.9906-0.381 0.9906-1.1684v-2.9972c0-0.7874-0.254-1.1684-0.9906-1.1684h-2.6416z"/>
    <path d="m88.638 178.34 2.921 3.2512h-1.27l-2.921-3.2512zm5.461 3.2512h-1.27l-2.921-3.2512h1.27l1.016 1.0668 1.016-1.0668h1.27l-1.651 1.8288 0.635 0.7112 2.286-2.54h1.27zm4.8514 18.694h-1.27l-2.2098-6.0198c-0.381 0.1016-0.7874 0.1778-1.2192 0.2286l2.032 5.7912h-1.27l-2.0066-5.7404h-1.7526v5.7404h-1.27v-5.7404h-1.27v5.7404h-1.27v-6.8834h5.9436c3.0988 0 4.0386-1.524 4.0386-4.3434v-0.9652c0-2.8194-0.9398-4.3434-4.0386-4.3434h-5.9436v-1.143h5.9436c3.7084 0 5.3086 2.0574 5.3086 5.4864v0.9652c0 2.2098-0.6604 3.8354-2.1336 4.7244zm-11.506-15.265h6.4516c1.8034 0 2.2606 0.889 2.2606 2.3114v2.4892c0 1.4224-0.4572 2.3114-2.2606 2.3114h-6.4516zm1.27 5.969h1.27v-4.826h-1.27zm2.54 0h2.6416c0.7366 0 0.9906-0.381 0.9906-1.1684v-2.4892c0-0.7874-0.254-1.1684-0.9906-1.1684h-2.6416z"/>
    <path d="m104.55 178.34-1.9558 3.2512h-1.27l1.9558-3.2512zm2.54 0-1.9558 3.2512h-1.27l1.9558-3.2512zm-7.112 4.2672h7.6708v1.143h-7.6708zm0 2.413h7.6708v1.143h-1.9304v10.566h1.9304v1.143h-7.6708v-1.143h1.9304v-10.566h-1.9304zm3.2004 11.709h1.27v-10.566h-1.27zm-3.2004 2.413h7.6708v1.143h-7.6708z"/>
    <path d="m117.88 195.82c0 1.4224-0.4572 2.3114-2.2606 2.3114h-1.524c-1.8034 0-2.2606-0.889-2.2606-2.3114v-1.4478h1.27v1.4478c0 0.7874 0.254 1.1684 0.9906 1.1684h1.524c0.7366 0 0.9906-0.381 0.9906-1.1684v-0.9906c0-2.3876-7.4422-0.8382-7.4422-6.7564v-0.4826c0-3.175 1.6002-5.2324 5.3086-5.2324h0.508c3.7084 0 5.3086 1.8034 5.3086 5.2324v0.9398h-1.27v-0.9398c0-2.8194-0.9398-4.0894-4.0386-4.0894h-0.508c-3.0988 0-4.0386 1.524-4.0386 4.0894v0.4826c0 5.1562 7.4422 2.8448 7.4422 6.7564zm-6.1722-8.7376c0-1.4224 0.4572-2.3114 2.2606-2.3114h1.524c1.8034 0 2.2606 0.889 2.2606 2.3114v1.4478h-1.27v-1.4478c0-0.7874-0.254-1.1684-0.9906-1.1684h-1.524c-0.7366 0-0.9906 0.381-0.9906 1.1684v0.9906c0 2.3622 7.4422 0.8382 7.4422 6.7564v0.4826c0 3.175-1.6002 5.2324-5.3086 5.2324h-0.508c-3.7084 0-5.3086-1.8034-5.3086-5.2324v-0.9398h1.27v0.9398c0 2.8194 0.9398 4.0894 4.0386 4.0894h0.508c3.0988 0 4.0386-1.524 4.0386-4.0894v-0.4826c0-5.1562-7.4422-2.8448-7.4422-6.7564z"/>
    <path d="m126.53 200.29h-1.27v-5.2324h-1.27v5.2324h-1.27v-6.3754h5.9436c3.0988 0 4.0386-1.524 4.0386-4.3434v-1.4732c0-2.8194-0.9398-4.3434-4.0386-4.3434h-5.9436v-1.143h5.9436c3.7084 0 5.3086 2.0574 5.3086 5.4864v1.4732c0 3.429-1.6002 5.4864-5.3086 5.4864h-2.1336zm-3.81-15.265h6.4516c1.8034 0 2.2606 0.889 2.2606 2.3114v2.9972c0 1.4224-0.4572 2.3114-2.2606 2.3114h-6.4516zm2.54 1.143h-1.27v5.334h1.27zm1.27 5.334h2.6416c0.7366 0 0.9906-0.381 0.9906-1.1684v-2.9972c0-0.7874-0.254-1.1684-0.9906-1.1684h-2.6416z"/>
    <path d="m136.37 178.34 2.921 3.2512h-1.27l-2.921-3.2512zm5.461 3.2512h-1.27l-2.921-3.2512h1.27l1.016 1.0668 1.016-1.0668h1.27l-1.651 1.8288 0.635 0.7112 2.286-2.54h1.27zm-6.0706 1.016h8.7884v1.143h-8.7884zm0 2.413h8.7884v1.143h-4.9784v3.4036h4.7244v1.143h-8.5344zm1.27 4.5466h1.27v-3.4036h-1.27zm-1.27 2.413h8.5344v1.143h-4.7244v3.6068h4.9784v1.143h-8.7884zm1.27 4.7498h1.27v-3.6068h-1.27zm-1.27 2.413h8.7884v1.143h-8.7884z"/>
    <path d="m147.08 182.61 4.191 17.678h-1.27l-4.191-17.678zm5.461 17.678-4.191-17.678h1.27l2.286 9.6266 2.286-9.6266h1.27l-2.921 12.319 0.635 2.6924 3.556-15.011h1.27l-4.191 17.678z"/>
    <path d="m166.71 189.44 2.7432-6.8326h1.3208l-3.2004 7.9756h-8.0518v-7.9756h1.27v6.8326h1.27v-6.8326h1.27v6.8326h0.762l2.7432-6.8326h1.3208l-2.7432 6.8326zm-1.143 3.556 3.0988 7.2898h-1.3208l-3.0988-7.2898h-0.9144v7.2898h-1.27v-7.2898h-1.27v7.2898h-1.27v-8.4328h8.1788l3.5814 8.4328h-1.3208l-3.0988-7.2898z"/>
    <path d="m171.8 182.61h1.27l4.064 13.106v4.572h-1.27v-4.572zm2.54 0h1.27l2.159 6.9596 2.159-6.9596h1.27l-2.794 8.9916 0.635 2.0828 3.429-11.074h1.27l-4.064 13.106v4.572h-1.27v-4.572z"/>
   </g>
  </g>
 </g>
</svg>
