<?xml version="1.0" encoding="UTF-8"?>
<!-- Created with Inkscape (http://www.inkscape.org/) -->
<svg width="316.07mm" height="22.2mm" version="1.1" viewBox="0 0 316.07 22.2" xmlns="http://www.w3.org/2000/svg" xmlns:cc="http://creativecommons.org/ns#" xmlns:dc="http://purl.org/dc/elements/1.1/" xmlns:rdf="http://www.w3.org/1999/02/22-rdf-syntax-ns#">
 <metadata>
  <rdf:RDF>
   <cc:Work rdf:about="">
    <dc:format>image/svg+xml</dc:format>
    <dc:type rdf:resource="http://purl.org/dc/dcmitype/StillImage"/>
    <dc:title/>
   </cc:Work>
  </rdf:RDF>
 </metadata>
 <g transform="translate(52.201 -137.73)">
  <g fill="#ff1d23" stroke-width=".26458px" aria-label="oddíl kondičního cvičení žen">
   <path d="m-52.201 147.23c0-3.429 1.6002-5.4864 5.3086-5.4864h0.635c3.7084 0 5.3086 2.0574 5.3086 5.4864v7.2136c0 3.429-1.6002 5.4864-5.3086 5.4864h-0.635c-3.7084 0-5.3086-2.0574-5.3086-5.4864zm7.4422-0.762c0-0.7874-0.254-1.1684-0.9906-1.1684h-1.651c-0.7366 0-0.9906 0.381-0.9906 1.1684v8.7376c0 0.7874 0.254 1.1684 0.9906 1.1684h1.651c0.7366 0 0.9906-0.381 0.9906-1.1684z"/>
   <path d="m-32.581 142c3.7084 0 5.3086 2.0574 5.3086 5.4864v6.7056c0 3.429-1.6002 5.4864-5.3086 5.4864h-6.0706v-17.678zm-2.2606 3.556v10.566h2.7686c0.7366 0 0.9906-0.381 0.9906-1.1684v-8.2296c0-0.7874-0.254-1.1684-0.9906-1.1684z"/>
   <path d="m-18.939 142c3.7084 0 5.3086 2.0574 5.3086 5.4864v6.7056c0 3.429-1.6002 5.4864-5.3086 5.4864h-6.0706v-17.678zm-2.2606 3.556v10.566h2.7686c0.7366 0 0.9906-0.381 0.9906-1.1684v-8.2296c0-0.7874-0.254-1.1684-0.9906-1.1684z"/>
   <path d="m-4.3816 137.73-2.5654 3.2512h-3.2004l1.9558-3.2512zm-5.8166 7.8232h-1.9304v-3.556h7.6708v3.556h-1.9304v10.566h1.9304v3.556h-7.6708v-3.556h1.9304z"/>
   <path d="m1.125 156.12h4.2164v3.556h-8.0264v-17.678h3.81z"/>
   <path d="m20.269 159.68h3.937l-3.9116-9.1948 3.4036-8.4836h-3.937l-2.7432 6.8326h-0.762v-6.8326h-3.81v17.678h3.81v-7.2898h0.9144z"/>
   <path d="m24.743 147.23c0-3.429 1.6002-5.4864 5.3086-5.4864h0.635c3.7084 0 5.3086 2.0574 5.3086 5.4864v7.2136c0 3.429-1.6002 5.4864-5.3086 5.4864h-0.635c-3.7084 0-5.3086-2.0574-5.3086-5.4864zm7.4422-0.762c0-0.7874-0.254-1.1684-0.9906-1.1684h-1.651c-0.7366 0-0.9906 0.381-0.9906 1.1684v8.7376c0 0.7874 0.254 1.1684 0.9906 1.1684h1.651c0.7366 0 0.9906-0.381 0.9906-1.1684z"/>
   <path d="m46.293 152.16h0.1524c-0.127-1.4478-0.254-3.6322-0.254-4.826v-5.334h3.81v17.678h-3.81l-4.191-10.16h-0.1524c0.127 1.4478 0.254 3.6322 0.254 4.826v5.334h-3.81v-17.678h3.81z"/>
   <path d="m58.601 142c3.7084 0 5.3086 2.0574 5.3086 5.4864v6.7056c0 3.429-1.6002 5.4864-5.3086 5.4864h-6.0706v-17.678zm-2.2606 3.556v10.566h2.7686c0.7366 0 0.9906-0.381 0.9906-1.1684v-8.2296c0-0.7874-0.254-1.1684-0.9906-1.1684z"/>
   <path d="m67.341 145.56h-1.9304v-3.556h7.6708v3.556h-1.9304v10.566h1.9304v3.556h-7.6708v-3.556h1.9304z"/>
   <path d="m78.537 140.98-2.921-3.2512h3.3782l1.2192 1.0668 1.2446-1.0668h3.3782l-2.921 3.2512zm3.5052 7.6962v-2.2098c0-0.7874-0.254-1.1684-0.9906-1.1684h-1.651c-0.7366 0-0.9906 0.381-0.9906 1.1684v8.7376c0 0.7874 0.254 1.1684 0.9906 1.1684h1.651c0.7366 0 0.9906-0.381 0.9906-1.1684v-2.2098h3.81v1.4478c0 3.429-1.6002 5.4864-5.3086 5.4864h-0.635c-3.7084 0-5.3086-2.0574-5.3086-5.4864v-7.2136c0-3.429 1.6002-5.4864 5.3086-5.4864h0.635c3.7084 0 5.3086 2.0574 5.3086 5.4864v1.4478z"/>
   <path d="m96.151 152.16h0.1524c-0.127-1.4478-0.254-3.6322-0.254-4.826v-5.334h3.81v17.678h-3.81l-4.191-10.16h-0.1524c0.127 1.4478 0.254 3.6322 0.254 4.826v5.334h-3.81v-17.678h3.81z"/>
   <path d="m109.37 137.73-2.5654 3.2512h-3.2004l1.9558-3.2512zm-5.8166 7.8232h-1.9304v-3.556h7.6708v3.556h-1.9304v10.566h1.9304v3.556h-7.6708v-3.556h1.9304z"/>
   <path d="m118.51 142h3.81v17.678h-3.81v-7.1628h-3.6322v7.1628h-3.81v-17.678h3.81v6.9596h3.6322z"/>
   <path d="m124.61 147.23c0-3.429 1.6002-5.4864 5.3086-5.4864h0.635c3.7084 0 5.3086 2.0574 5.3086 5.4864v7.2136c0 3.429-1.6002 5.4864-5.3086 5.4864h-0.635c-3.7084 0-5.3086-2.0574-5.3086-5.4864zm7.4422-0.762c0-0.7874-0.254-1.1684-0.9906-1.1684h-1.651c-0.7366 0-0.9906 0.381-0.9906 1.1684v8.7376c0 0.7874 0.254 1.1684 0.9906 1.1684h1.651c0.7366 0 0.9906-0.381 0.9906-1.1684z"/>
   <path d="m150.4 148.68v-2.2098c0-0.7874-0.254-1.1684-0.9906-1.1684h-1.651c-0.7366 0-0.9906 0.381-0.9906 1.1684v8.7376c0 0.7874 0.254 1.1684 0.9906 1.1684h1.651c0.7366 0 0.9906-0.381 0.9906-1.1684v-2.2098h3.81v1.4478c0 3.429-1.6002 5.4864-5.3086 5.4864h-0.635c-3.7084 0-5.3086-2.0574-5.3086-5.4864v-7.2136c0-3.429 1.6002-5.4864 5.3086-5.4864h0.635c3.7084 0 5.3086 2.0574 5.3086 5.4864v1.4478z"/>
   <path d="m159.19 159.68-4.191-17.678h3.81l1.0414 4.826c0.3302 1.4986 0.8382 4.1148 1.1684 7.112h0.1524c0.3302-2.9972 0.8382-5.6134 1.1684-7.112l1.0414-4.826h3.81l-4.191 17.678z"/>
   <path d="m169.88 145.56h-1.9304v-3.556h7.6708v3.556h-1.9304v10.566h1.9304v3.556h-7.6708v-3.556h1.9304z"/>
   <path d="m181.08 140.98-2.921-3.2512h3.3782l1.2192 1.0668 1.2446-1.0668h3.3782l-2.921 3.2512zm3.5052 7.6962v-2.2098c0-0.7874-0.254-1.1684-0.9906-1.1684h-1.651c-0.7366 0-0.9906 0.381-0.9906 1.1684v8.7376c0 0.7874 0.254 1.1684 0.9906 1.1684h1.651c0.7366 0 0.9906-0.381 0.9906-1.1684v-2.2098h3.81v1.4478c0 3.429-1.6002 5.4864-5.3086 5.4864h-0.635c-3.7084 0-5.3086-2.0574-5.3086-5.4864v-7.2136c0-3.429 1.6002-5.4864 5.3086-5.4864h0.635c3.7084 0 5.3086 2.0574 5.3086 5.4864v1.4478z"/>
   <path d="m199.23 148.96v3.556h-4.7244v3.6068h4.9784v3.556h-8.7884v-17.678h8.7884v3.556h-4.9784v3.4036z"/>
   <path d="m209.76 152.16h0.1524c-0.127-1.4478-0.254-3.6322-0.254-4.826v-5.334h3.81v17.678h-3.81l-4.191-10.16h-0.1524c0.127 1.4478 0.254 3.6322 0.254 4.826v5.334h-3.81v-17.678h3.81z"/>
   <path d="m222.98 137.73-2.5654 3.2512h-3.2004l1.9558-3.2512zm-5.8166 7.8232h-1.9304v-3.556h7.6708v3.556h-1.9304v10.566h1.9304v3.556h-7.6708v-3.556h1.9304z"/>
   <path d="m232.45 140.98-2.921-3.2512h3.3782l1.2192 1.0668 1.2446-1.0668h3.3782l-2.921 3.2512zm-2.9718 4.572v-3.556h9.398v3.556l-5.334 10.566h5.5118v3.556h-9.8298v-3.556l5.334-10.566z"/>
   <path d="m249.63 148.96v3.556h-4.7244v3.6068h4.9784v3.556h-8.7884v-17.678h8.7884v3.556h-4.9784v3.4036z"/>
   <path d="m260.16 152.16h0.1524c-0.127-1.4478-0.254-3.6322-0.254-4.826v-5.334h3.81v17.678h-3.81l-4.191-10.16h-0.1524c0.127 1.4478 0.254 3.6322 0.254 4.826v5.334h-3.81v-17.678h3.81z"/>
  </g>
 </g>
</svg>
