<?xml version="1.0" encoding="UTF-8"?>
<!-- Created with Inkscape (http://www.inkscape.org/) -->
<svg  width="120mm" height="22mm" version="1.1" viewBox="0 0 120 22" xmlns="http://www.w3.org/2000/svg" xmlns:cc="http://creativecommons.org/ns#" xmlns:dc="http://purl.org/dc/elements/1.1/" xmlns:rdf="http://www.w3.org/1999/02/22-rdf-syntax-ns#"><metadata ><rdf:RDF><cc:Work rdf:about=""><dc:format>image/svg+xml</dc:format><dc:type rdf:resource="http://purl.org/dc/dcmitype/StillImage"/><dc:title/></cc:Work></rdf:RDF></metadata><g  transform="translate(0,16)"><g  style="" aria-label="Pocta vzniku republiky"><path  d="m2.4 0h-1.8v-8.35h2.81c1.75 0 2.51.972 2.51 2.59v.696c0 1.62-.756 2.59-2.51 2.59h-1.01zm0-4.15h1.25c.348 0 .468-.18.468-.552v-1.42c0-.372-.12-.552-.468-.552h-1.25z" style="fill:#e40521;stroke-width:1px"/><path  d="m6.64-5.88c0-1.62.756-2.59 2.51-2.59h.3c1.75 0 2.51.972 2.51 2.59v3.41c0 1.62-.756 2.59-2.51 2.59h-.3c-1.75 0-2.51-.972-2.51-2.59zm3.52-.36c0-.372-.12-.552-.468-.552h-.78c-.348 0-.468.18-.468.552v4.13c0 .372.12.552.468.552h.78c.348 0 .468-.18.468-.552z" style="fill:#e40521;stroke-width:1px"/><path  d="m16.4-5.2v-1.04c0-.372-.12-.552-.468-.552h-.78c-.348 0-.468.18-.468.552v4.13c0 .372.12.552.468.552h.78c.348 0 .468-.18.468-.552v-1.04h1.8v.684c0 1.62-.756 2.59-2.51 2.59h-.3c-1.75 0-2.51-.972-2.51-2.59v-3.41c0-1.62.756-2.59 2.51-2.59h.3c1.75 0 2.51.972 2.51 2.59v.684z" style="fill:#e40521;stroke-width:1px"/><path  d="m20.1 0v-6.67h-1.33v-1.68h4.46v1.68h-1.33v6.67z" style="fill:#e40521;stroke-width:1px"/><path  d="m25-1.33-.252 1.33h-1.8l1.98-8.35h1.8l1.98 8.35h-1.8l-.252-1.33zm1.34-1.68c-.168-.876-.372-1.84-.48-2.63h-.072c-.108.792-.312 1.75-.48 2.63z" style="fill:#e40521;stroke-width:1px"/><path  d="m33.3 0-1.98-8.35h1.8l.492 2.28c.156.708.396 1.94.552 3.36h.072c.156-1.42.396-2.65.552-3.36l.492-2.28h1.8l-1.98 8.35z" style="fill:#e40521;stroke-width:1px"/><path  d="m37.7-6.67v-1.68h4.44v1.68l-2.52 4.99h2.6v1.68h-4.64v-1.68l2.52-4.99z" style="fill:#e40521;stroke-width:1px"/><path  d="m47-3.55h.072c-.06-.684-.12-1.72-.12-2.28v-2.52h1.8v8.35h-1.8l-1.98-4.8h-.072c.06.684.12 1.72.12 2.28v2.52h-1.8v-8.35h1.8z" style="fill:#e40521;stroke-width:1px"/><path  d="m50.5-6.67h-.912v-1.68h3.62v1.68h-.912v4.99h.912v1.68h-3.62v-1.68h.912z" style="fill:#e40521;stroke-width:1px"/><path  d="m57.7 0h1.86l-1.85-4.34 1.61-4.01h-1.86l-1.3 3.23h-.36v-3.23h-1.8v8.35h1.8v-3.44h.432z" style="fill:#e40521;stroke-width:1px"/><path  d="m62-8.35v6.24c0 .372.12.552.468.552h.78c.348 0 .468-.18.468-.552v-6.24h1.8v5.88c0 1.62-.756 2.59-2.51 2.59h-.3c-1.75 0-2.51-.972-2.51-2.59v-5.88z" style="fill:#e40521;stroke-width:1px"/><path  d="m74.4 0-1.13-3.07c.696-.42 1.01-1.19 1.01-2.23v-.456c0-1.62-.756-2.59-2.51-2.59h-2.81v8.35h1.8v-2.71h.828l.948 2.71zm-3.64-6.67h1.25c.348 0 .468.18.468.552v1.18c0 .372-.12.552-.468.552h-1.25z" style="fill:#e40521;stroke-width:1px"/><path  d="m79.3-5.06v1.68h-2.23v1.7h2.35v1.68h-4.15v-8.35h4.15v1.68h-2.35v1.61z" style="fill:#e40521;stroke-width:1px"/><path  d="m82.3 0h-1.8v-8.35h2.81c1.75 0 2.51.972 2.51 2.59v.696c0 1.62-.756 2.59-2.51 2.59h-1.01zm0-4.15h1.25c.348 0 .468-.18.468-.552v-1.42c0-.372-.12-.552-.468-.552h-1.25z" style="fill:#e40521;stroke-width:1px"/><path  d="m88.3-8.35v6.24c0 .372.12.552.468.552h.78c.348 0 .468-.18.468-.552v-6.24h1.8v5.88c0 1.62-.756 2.59-2.51 2.59h-.3c-1.75 0-2.51-.972-2.51-2.59v-5.88z" style="fill:#e40521;stroke-width:1px"/><path  d="m97.4-4.24c.828.408.984 1.2.984 1.84v.288c0 1.38-.756 2.11-2.51 2.11h-2.93v-8.35h2.81c1.75 0 2.51.732 2.51 2.11v.336c0 .552-.12 1.28-.864 1.67zm-2.65-.708h1.25c.348 0 .468-.18.468-.552v-.624c0-.372-.12-.552-.468-.552h-1.25zm0 1.58v1.68h1.37c.348 0 .468-.18.468-.552v-.576c0-.372-.12-.552-.468-.552z" style="fill:#e40521;stroke-width:1px"/><path  d="m101-1.68h1.99v1.68h-3.79v-8.35h1.8z" style="fill:#e40521;stroke-width:1px"/><path  d="m105-6.67h-.912v-1.68h3.62v1.68h-.912v4.99h.912v1.68h-3.62v-1.68h.912z" style="fill:#e40521;stroke-width:1px"/><path  d="m112 0h1.86l-1.85-4.34 1.61-4.01h-1.86l-1.3 3.23h-.36v-3.23h-1.8v8.35h1.8v-3.44h.432z" style="fill:#e40521;stroke-width:1px"/><path  d="m116 0v-2.16l-1.92-6.19h1.8l.384 1.37c.192.696.42 1.7.6 2.64h.072c.18-.936.408-1.94.6-2.64l.384-1.37h1.8l-1.92 6.19v2.16z" style="fill:#e40521;stroke-width:1px"/></g></g></svg>
