<?xml version="1.0" encoding="UTF-8"?>
<!-- Created with Inkscape (http://www.inkscape.org/) -->
<svg  width="304mm" height="88.1mm" version="1.1" viewBox="0 0 304 88.1" xmlns="http://www.w3.org/2000/svg" xmlns:cc="http://creativecommons.org/ns#" xmlns:dc="http://purl.org/dc/elements/1.1/" xmlns:rdf="http://www.w3.org/1999/02/22-rdf-syntax-ns#"><defs ><clipPath ><path  d="m0 79.4h79.4v-79.4h-79.4z"/></clipPath></defs><metadata ><rdf:RDF><cc:Work rdf:about=""><dc:format>image/svg+xml</dc:format><dc:type rdf:resource="http://purl.org/dc/dcmitype/StillImage"/><dc:title/></cc:Work></rdf:RDF></metadata><g  transform="translate(183 -78.3)"><path  d="m-183 78.3h304v88.1h-304z" style="fill:#e40521"/><g  transform="matrix(1.4 0 0 1.4 12.1 -47.1)"><g  transform="matrix(.68 0 0 .68 -170 79.3)" aria-label="ŽUPA BARÁKOVA"><g  style="fill:#ffffff;stroke-width:.265px" aria-label="sokol šestajovice"><path  d="m144 72.7c-3.71 0-5.31-1.8-5.31-5.23v-.94h3.81v1.45c0 .787.254 1.17.991 1.17h1.52c.737 0 .991-.381.991-1.17v-.991c0-2.39-7.44-.838-7.44-6.76v-.483c0-3.18 1.6-5.23 5.31-5.23h.508c3.71 0 5.31 1.8 5.31 5.23v.94h-3.81v-1.45c0-.787-.254-1.17-.991-1.17h-1.52c-.737 0-.991.381-.991 1.17v.991c0 2.36 7.44.838 7.44 6.76v.483c0 3.18-1.6 5.23-5.31 5.23z"/><path  d="m152 60c0-3.43 1.6-5.49 5.31-5.49h.635c3.71 0 5.31 2.06 5.31 5.49v7.21c0 3.43-1.6 5.49-5.31 5.49h-.635c-3.71 0-5.31-2.06-5.31-5.49zm7.44-.762c0-.787-.254-1.17-.991-1.17h-1.65c-.737 0-.991.381-.991 1.17v8.74c0 .787.254 1.17.991 1.17h1.65c.737 0 .991-.381.991-1.17z"/><path  d="m173 72.4h3.94l-3.91-9.19 3.4-8.48h-3.94l-2.74 6.83h-.762v-6.83h-3.81v17.7h3.81v-7.29h.914z"/><path  d="m177 60c0-3.43 1.6-5.49 5.31-5.49h.635c3.71 0 5.31 2.06 5.31 5.49v7.21c0 3.43-1.6 5.49-5.31 5.49h-.635c-3.71 0-5.31-2.06-5.31-5.49zm7.44-.762c0-.787-.254-1.17-.991-1.17h-1.65c-.737 0-.991.381-.991 1.17v8.74c0 .787.254 1.17.991 1.17h1.65c.737 0 .991-.381.991-1.17z"/><path  d="m195 68.9h4.22v3.56h-8.03v-17.7h3.81z"/><path  d="m210 53.7-2.92-3.25h3.38l1.22 1.07 1.24-1.07h3.38l-2.92 3.25zm1.5 18.9c-3.71 0-5.31-1.8-5.31-5.23v-.94h3.81v1.45c0 .787.254 1.17.991 1.17h1.52c.737 0 .991-.381.991-1.17v-.991c0-2.39-7.44-.838-7.44-6.76v-.483c0-3.18 1.6-5.23 5.31-5.23h.508c3.71 0 5.31 1.8 5.31 5.23v.94h-3.81v-1.45c0-.787-.254-1.17-.991-1.17h-1.52c-.737 0-.991.381-.991 1.17v.991c0 2.36 7.44.838 7.44 6.76v.483c0 3.18-1.6 5.23-5.31 5.23z"/><path  d="m228 61.7v3.56h-4.72v3.61h4.98v3.56h-8.79v-17.7h8.79v3.56h-4.98v3.4z"/><path  d="m236 72.7c-3.71 0-5.31-1.8-5.31-5.23v-.94h3.81v1.45c0 .787.254 1.17.991 1.17h1.52c.737 0 .991-.381.991-1.17v-.991c0-2.39-7.44-.838-7.44-6.76v-.483c0-3.18 1.6-5.23 5.31-5.23h.508c3.71 0 5.31 1.8 5.31 5.23v.94h-3.81v-1.45c0-.787-.254-1.17-.991-1.17h-1.52c-.737 0-.991.381-.991 1.17v.991c0 2.36 7.44.838 7.44 6.76v.483c0 3.18-1.6 5.23-5.31 5.23z"/><path  d="m245 72.4v-14.1h-2.82v-3.56h9.45v3.56h-2.82v14.1z"/><path  d="m256 69.6-.533 2.82h-3.81l4.19-17.7h3.81l4.19 17.7h-3.81l-.533-2.82zm2.84-3.56c-.356-1.85-.787-3.89-1.02-5.56h-.152c-.229 1.68-.66 3.71-1.02 5.56z"/><path  d="m265 58.3v-3.56h7.54v3.56h-1.8v8.64c0 3.43-1.6 5.49-5.31 5.49h-1.45v-3.56h1.96c.737 0 .991-.381.991-1.17v-9.4z"/><path  d="m274 60c0-3.43 1.6-5.49 5.31-5.49h.635c3.71 0 5.31 2.06 5.31 5.49v7.21c0 3.43-1.6 5.49-5.31 5.49h-.635c-3.71 0-5.31-2.06-5.31-5.49zm7.44-.762c0-.787-.254-1.17-.991-1.17h-1.65c-.737 0-.991.381-.991 1.17v8.74c0 .787.254 1.17.991 1.17h1.65c.737 0 .991-.381.991-1.17z"/><path  d="m290 72.4-4.19-17.7h3.81l1.04 4.83c.33 1.5.838 4.11 1.17 7.11h.152c.33-3 .838-5.61 1.17-7.11l1.04-4.83h3.81l-4.19 17.7z"/><path  d="m301 58.3h-1.93v-3.56h7.67v3.56h-1.93v10.6h1.93v3.56h-7.67v-3.56h1.93z"/><path  d="m316 61.4v-2.21c0-.787-.254-1.17-.991-1.17h-1.65c-.737 0-.991.381-.991 1.17v8.74c0 .787.254 1.17.991 1.17h1.65c.737 0 .991-.381.991-1.17v-2.21h3.81v1.45c0 3.43-1.6 5.49-5.31 5.49h-.635c-3.71 0-5.31-2.06-5.31-5.49v-7.21c0-3.43 1.6-5.49 5.31-5.49h.635c3.71 0 5.31 2.06 5.31 5.49v1.45z"/><path  d="m330 61.7v3.56h-4.72v3.61h4.98v3.56h-8.79v-17.7h8.79v3.56h-4.98v3.4z"/></g></g><g  transform="matrix(.574 0 0 -.574 -123 144)"><g ><g  clip-path="url(#clipPath90)"><g  transform="translate(39.7 11.3)"><path  d="m0 0c15.6 0 28.3 12.7 28.3 28.4 0 15.6-12.7 28.3-28.3 28.3-15.6 0-28.3-12.7-28.3-28.3 0-15.6 12.7-28.4 28.3-28.4" style="fill:#e40521"/></g><g  transform="translate(29.1 43.2)"><path  d="m0 0c-1.67 1.93-2.81 4.3-2.81 7.29 0 6.43 5.83 10.8 12.7 10.8 3.1 0 5.86-1.1 8.02-2.78v-5.81c-2.05 2.3-4.71 3.37-7.27 3.37-3.21 0-5.97-1.92-5.97-4.85 0-.637.107-1.2.299-1.71-2.4-1.4-4.2-3.65-4.94-6.32m19.5 1.7c.725-1.34 1.14-2.86 1.14-4.48 0-.142-.005-.282-.011-.424-1.47 1.25-3.27 2.48-5.42 3.71-1.02 1.62-2.75 2.68-4.64 2.68-2.99 0-5.59-2.67-5.59-5.97s2.6-5.97 5.59-5.97c.257 0 .51.021.759.059 1.52-.833 2.9-1.7 3.89-2.69-1.39-.698-2.97-1.1-4.64-1.1-1.84 0-3.55.476-5.04 1.3l-2.66-2.55c2-3.38 5.43-5.97 8.93-5.97 3.3 0 5.85 1.68 5.86 4.98.008 4.77-6.06 6.7-11.3 9.76-.304.663-.475 1.4-.475 2.18 0 2.46 1.73 4.58 3.93 4.97 1.35-.662 2.85-1.33 4.33-2.16 8.16-4.56 10.9-8.76 10.9-13.6 0-7.32-6.3-11.4-12.6-11.4-5.82 0-11 4.1-13.1 8.86v-5.29h-4.48v14.9h4.48v-4.86l3.04 2.9c-1.2 1.6-1.92 3.56-1.92 5.69 0 5.36 4.51 9.7 10.1 9.7 3.39 0 6.38-1.62 8.21-4.08v13.8h4.48v-11.2h5.22v-3.73zm-8.93-30.6c-14 0-25.4 11.4-25.4 25.4 0 14 11.4 25.4 25.4 25.4s25.4-11.4 25.4-25.4c0-14-11.4-25.4-25.4-25.4m0 52.2c-14.8 0-26.9-12-26.9-26.9 0-14.8 12-26.9 26.9-26.9s26.9 12 26.9 26.9c0 14.8-12 26.9-26.9 26.9" style="fill:#ffffff"/></g></g></g></g></g></g></svg>
