<?xml version="1.0" encoding="UTF-8"?>
<!-- Created with Inkscape (http://www.inkscape.org/) -->
<svg width="287.07pt" height="62.928pt" version="1.1" viewBox="0 0 101.27 22.2" xmlns="http://www.w3.org/2000/svg" xmlns:cc="http://creativecommons.org/ns#" xmlns:dc="http://purl.org/dc/elements/1.1/" xmlns:rdf="http://www.w3.org/1999/02/22-rdf-syntax-ns#">
 <metadata>
  <rdf:RDF>
   <cc:Work rdf:about="">
    <dc:format>image/svg+xml</dc:format>
    <dc:type rdf:resource="http://purl.org/dc/dcmitype/StillImage"/>
    <dc:title/>
   </cc:Work>
  </rdf:RDF>
 </metadata>
 <g transform="translate(-141.94 -92.064)">
  <g aria-label="chceš nás podpořit? staň se naším členem!">
   <g fill="#e40521" stroke-width=".26458px" aria-label="odhláška">
    <path d="m141.94 101.56c0-3.429 1.6002-5.4864 5.3086-5.4864h0.635c3.7084 0 5.3086 2.0574 5.3086 5.4864v7.2136c0 3.429-1.6002 5.4864-5.3086 5.4864h-0.635c-3.7084 0-5.3086-2.0574-5.3086-5.4864zm1.27 7.2136c0 2.8194 0.9398 4.3434 4.0386 4.3434h0.635c3.0988 0 4.0386-1.524 4.0386-4.3434v-7.2136c0-2.8194-0.9398-4.3434-4.0386-4.3434h-0.635c-3.0988 0-4.0386 1.524-4.0386 4.3434zm1.27-7.9756c0-1.4224 0.4572-2.3114 2.2606-2.3114h1.651c1.8034 0 2.2606 0.889 2.2606 2.3114v8.7376c0 1.4224-0.4572 2.3114-2.2606 2.3114h-1.651c-1.8034 0-2.2606-0.889-2.2606-2.3114zm4.9022 0c0-0.7874-0.254-1.1684-0.9906-1.1684h-1.651c-0.7366 0-0.9906 0.381-0.9906 1.1684v8.7376c0 0.7874 0.254 1.1684 0.9906 1.1684h1.651c0.7366 0 0.9906-0.381 0.9906-1.1684z"/>
    <path d="m155.49 112.87h6.0706c3.0988 0 4.0386-1.524 4.0386-4.3434v-6.7056c0-2.8194-0.9398-4.3434-4.0386-4.3434h-6.0706v-1.143h6.0706c3.7084 0 5.3086 2.0574 5.3086 5.4864v6.7056c0 3.429-1.6002 5.4864-5.3086 5.4864h-6.0706zm0-14.122h6.5786c1.8034 0 2.2606 0.889 2.2606 2.3114v8.2296c0 1.4224-0.4572 2.3114-2.2606 2.3114h-6.5786zm1.27 1.143v10.566h1.27v-10.566zm2.54 10.566h2.7686c0.7366 0 0.9906-0.381 0.9906-1.1684v-8.2296c0-0.7874-0.254-1.1684-0.9906-1.1684h-2.7686z"/>
    <path d="m169.13 96.331h1.27v6.9596h1.27v-6.9596h1.27v6.9596h3.6322v-6.9596h1.27v6.9596h1.27v-6.9596h1.27v8.1026h-11.252zm0 9.3726h11.252v8.3058h-1.27v-7.1628h-1.27v7.1628h-1.27v-7.1628h-3.6322v7.1628h-1.27v-7.1628h-1.27v7.1628h-1.27z"/>
    <path d="m185.47 96.331h1.27v14.122h4.2164v1.143h-8.0264v-15.265h1.27v14.122h1.27zm-2.54 16.535h8.0264v1.143h-8.0264z"/>
    <path d="m198.81 92.064-1.9558 3.2512h-1.27l1.9558-3.2512zm2.54 0-1.9558 3.2512h-1.27l1.9558-3.2512zm-1.2192 15.57h1.27l-2.6924-11.303h1.27l2.9464 12.446h-9.7028l2.9464-12.446h1.27zm-5.3848 0h1.27l1.4224-5.9436-0.635-2.6924zm2.54 0h1.5748l-0.7874-3.302zm-0.8382 3.556-0.6604 2.8194h-1.27l0.6604-2.8194h-1.27l-0.6604 2.8194h-1.27l0.9398-3.9624h10.312l0.9398 3.9624h-1.27l-0.6604-2.8194h-1.27l0.6604 2.8194h-1.27l-0.6604-2.8194z"/>
    <path d="m206.77 92.064 2.921 3.2512h-1.27l-2.921-3.2512zm5.461 3.2512h-1.27l-2.921-3.2512h1.27l1.016 1.0668 1.016-1.0668h1.27l-1.651 1.8288 0.635 0.7112 2.286-2.54h1.27zm1.4224 14.224c0 1.4224-0.4572 2.3114-2.2606 2.3114h-1.524c-1.8034 0-2.2606-0.889-2.2606-2.3114v-1.4478h1.27v1.4478c0 0.7874 0.254 1.1684 0.9906 1.1684h1.524c0.7366 0 0.9906-0.381 0.9906-1.1684v-0.9906c0-2.3876-7.4422-0.8382-7.4422-6.7564v-0.4826c0-3.175 1.6002-5.2324 5.3086-5.2324h0.508c3.7084 0 5.3086 1.8034 5.3086 5.2324v0.9398h-1.27v-0.9398c0-2.8194-0.9398-4.0894-4.0386-4.0894h-0.508c-3.0988 0-4.0386 1.524-4.0386 4.0894v0.4826c0 5.1562 7.4422 2.8448 7.4422 6.7564zm-6.1722-8.7376c0-1.4224 0.4572-2.3114 2.2606-2.3114h1.524c1.8034 0 2.2606 0.889 2.2606 2.3114v1.4478h-1.27v-1.4478c0-0.7874-0.254-1.1684-0.9906-1.1684h-1.524c-0.7366 0-0.9906 0.381-0.9906 1.1684v0.9906c0 2.3622 7.4422 0.8382 7.4422 6.7564v0.4826c0 3.175-1.6002 5.2324-5.3086 5.2324h-0.508c-3.7084 0-5.3086-1.8034-5.3086-5.2324v-0.9398h1.27v0.9398c0 2.8194 0.9398 4.0894 4.0386 4.0894h0.508c3.0988 0 4.0386-1.524 4.0386-4.0894v-0.4826c0-5.1562-7.4422-2.8448-7.4422-6.7564z"/>
    <path d="m225.68 103.16 2.7432-6.8326h1.3208l-3.2004 7.9756h-8.0518v-7.9756h1.27v6.8326h1.27v-6.8326h1.27v6.8326h0.762l2.7432-6.8326h1.3208l-2.7432 6.8326zm-1.143 3.556 3.0988 7.2898h-1.3208l-3.0988-7.2898h-0.9144v7.2898h-1.27v-7.2898h-1.27v7.2898h-1.27v-8.4328h8.1788l3.5814 8.4328h-1.3208l-3.0988-7.2898z"/>
    <path d="m239.18 107.63h1.27l-2.6924-11.303h1.27l2.9464 12.446h-9.7028l2.9464-12.446h1.27zm-5.3848 0h1.27l1.4224-5.9436-0.635-2.6924zm2.54 0h1.5748l-0.7874-3.302zm-0.8382 3.556-0.6604 2.8194h-1.27l0.6604-2.8194h-1.27l-0.6604 2.8194h-1.27l0.9398-3.9624h10.312l0.9398 3.9624h-1.27l-0.6604-2.8194h-1.27l0.6604 2.8194h-1.27l-0.6604-2.8194z"/>
   </g>
  </g>
 </g>
</svg>
