<?xml version="1.0" encoding="UTF-8" standalone="no"?>
<!-- Created with Inkscape (http://www.inkscape.org/) -->

<svg
   xmlns:dc="http://purl.org/dc/elements/1.1/"
   xmlns:cc="http://creativecommons.org/ns#"
   xmlns:rdf="http://www.w3.org/1999/02/22-rdf-syntax-ns#"
   xmlns:svg="http://www.w3.org/2000/svg"
   xmlns="http://www.w3.org/2000/svg"
   xmlns:sodipodi="http://sodipodi.sourceforge.net/DTD/sodipodi-0.dtd"
   xmlns:inkscape="http://www.inkscape.org/namespaces/inkscape"
   width="7.6439524cm"
   height="3.9347773cm"
   viewBox="0 0 76.439523 39.347773"
   version="1.1"
   id="svg6999"
   inkscape:version="0.92.3 (2405546, 2018-03-11)"
   sodipodi:docname="logo_tj_sokol_sestajovice_vertikalni.svg"
   inkscape:export-filename="C:\Users\m23\Desktop\logo_tj_sokol_sestajovice_vertikalni_96dpi.png"
   inkscape:export-xdpi="96"
   inkscape:export-ydpi="96">
  <defs
     id="defs6993" />
  <sodipodi:namedview
     id="base"
     pagecolor="#ffffff"
     bordercolor="#666666"
     borderopacity="1.0"
     inkscape:pageopacity="0.0"
     inkscape:pageshadow="2"
     inkscape:zoom="0.98994949"
     inkscape:cx="164.54689"
     inkscape:cy="10.160658"
     inkscape:document-units="mm"
     inkscape:current-layer="layer1"
     showgrid="false"
     fit-margin-top="0.4"
     fit-margin-left="0.4"
     fit-margin-right="0.4"
     fit-margin-bottom="0.4"
     units="cm"
     inkscape:window-width="958"
     inkscape:window-height="1018"
     inkscape:window-x="953"
     inkscape:window-y="0"
     inkscape:window-maximized="0" />
  <metadata
     id="metadata6996">
    <rdf:RDF>
      <cc:Work
         rdf:about="">
        <dc:format>image/svg+xml</dc:format>
        <dc:type
           rdf:resource="http://purl.org/dc/dcmitype/StillImage" />
        <dc:title></dc:title>
      </cc:Work>
    </rdf:RDF>
  </metadata>
  <g
     inkscape:label="Vrstva 1"
     inkscape:groupmode="layer"
     id="layer1"
     transform="translate(-69.125477,-129.9154)">
    <g
       id="g6901"
       transform="translate(1.1914557,-118.61888)">
      <g
         transform="matrix(0.35277777,0,0,-0.35277777,105.57558,274.0001)"
         id="g172">
        <path
           inkscape:connector-curvature="0"
           id="path174"
           style="fill:#ed1c24;fill-opacity:1;fill-rule:nonzero;stroke:none"
           d="M 0,0 C 16.749,0 30.42,13.672 30.42,30.427 30.42,47.182 16.749,60.848 0,60.848 -16.761,60.848 -30.427,47.182 -30.427,30.427 -30.427,13.672 -16.761,0 0,0" />
      </g>
      <g
         transform="matrix(0.35277777,0,0,-0.35277777,105.56429,273.59017)"
         id="g176">
        <path
           inkscape:connector-curvature="0"
           id="path178"
           style="fill:#ffffff;fill-opacity:1;fill-rule:nonzero;stroke:none"
           d="M 0,0 C 16.126,0 29.289,13.159 29.289,29.297 29.289,45.425 16.126,58.583 0,58.583 -16.132,58.583 -29.295,45.425 -29.295,29.297 -29.295,13.159 -16.132,0 0,0" />
      </g>
      <g
         transform="matrix(0.35277777,0,0,-0.35277777,105.60451,272.75727)"
         id="g180">
        <path
           inkscape:connector-curvature="0"
           id="path182"
           style="fill:#ed1c24;fill-opacity:1;fill-rule:nonzero;stroke:none"
           d="M 0,0 C 14.878,0 27.012,12.135 27.012,27.012 27.012,41.89 14.878,54.025 0,54.025 -14.883,54.025 -27.017,41.89 -27.017,27.012 -27.017,12.135 -14.883,0 0,0" />
      </g>
      <g
         transform="matrix(0.35277777,0,0,-0.35277777,112.46921,260.26153)"
         id="g184">
        <path
           inkscape:connector-curvature="0"
           id="path186"
           style="fill:#ffffff;fill-opacity:1;fill-rule:nonzero;stroke:none"
           d="m 0,0 -5.312,0.004 0.007,12.381 -4.579,-0.008 V -2.127 c -0.416,0.647 -0.906,1.259 -1.488,1.828 -0.995,0.975 -2.099,1.716 -3.299,2.207 -1.207,0.492 -2.515,0.742 -3.918,0.742 -1.386,0 -2.672,-0.25 -3.856,-0.735 -1.184,-0.494 -2.273,-1.218 -3.263,-2.186 -1.022,-1.007 -1.807,-2.148 -2.349,-3.424 -0.541,-1.272 -0.806,-2.614 -0.806,-4.015 0,-2.082 0.487,-3.929 1.439,-5.55 l -3.569,-4.297 -0.009,6.381 -4.802,-0.002 0.015,-16.607 4.63,0.013 -0.008,5.519 c 0.401,-0.054 0.384,0.006 0.449,-0.098 2.836,-4.387 6.482,-6.617 10.43,-7.638 8.012,-2.072 16.384,3.77 16.697,12.384 -0.065,8.233 -5.588,9.744 -16.283,15.24 -2.12,-0.567 -5.008,-3.291 -3.793,-7.548 4.113,-1.657 8.923,-3.685 11.309,-6.479 0.004,-0.003 0.004,-0.008 0.004,-0.011 0.451,-0.408 0.881,-1.384 1,-1.978 0.006,-0.029 0.018,-0.118 0.025,-0.152 0.018,-0.08 0.033,-0.18 0.037,-0.215 0.007,-0.087 0.016,-0.156 0.018,-0.246 0,-0.052 0.007,-0.027 0.007,-0.081 -0.004,-0.046 0.009,-0.095 0.006,-0.143 -0.002,-0.28 -0.006,-0.557 -0.055,-0.849 -0.817,-4.917 -9.397,-10.431 -16.068,1.769 l 2.093,2.452 c 1.851,-1.636 4.073,-2.462 6.67,-2.462 1.511,0 2.91,0.287 4.204,0.861 0.42,0.183 0.82,0.41 1.215,0.652 -0.939,1.022 -2.408,2.129 -3.763,2.874 -0.539,-0.161 -1.099,-0.27 -1.704,-0.27 -1.731,0 -3.187,0.617 -4.367,1.838 -1.179,1.229 -1.769,2.754 -1.769,4.555 0,0.91 0.206,1.797 0.606,2.662 0.407,0.866 0.964,1.602 1.673,2.198 0.541,0.453 1.13,0.799 1.769,1.039 0.631,0.232 1.298,0.35 1.985,0.35 1.681,0 3.126,-0.611 4.328,-1.834 0.433,-0.443 0.76,-0.93 1.038,-1.434 1.503,-0.777 3.888,-1.953 5.124,-2.893 0,0.015 0,-0.015 0,0 0,1.439 -0.26,2.781 -0.779,4.031 -0.068,0.166 -0.154,0.325 -0.23,0.486 l 9.259,-0.005 z m -29.478,-5.72 c 0.499,3.851 3.458,6.324 4.243,6.917 -0.269,0.977 -0.463,2.299 -0.347,3.178 0.545,4.123 4.234,5.655 7.978,4.989 2.566,-0.46 4.978,-2.201 6.819,-4.215 0.023,-0.026 0.045,-0.041 0.067,-0.065 l -0.011,6.144 c -8.363,5.996 -16.735,3.6 -20.519,-1.707 -2.233,-3.133 -2.635,-7.417 -1.2,-11.345 0.521,-1.444 1.501,-2.832 2.97,-3.896" />
      </g>
      <g
         transform="translate(-8.5107292)"
         id="g5206">
        <path
           inkscape:connector-curvature="0"
           style="font-variant:normal;font-weight:normal;font-size:medium;font-family:Utopia;-inkscape-font-specification:Utopia;writing-mode:lr-tb;fill:#231f20;fill-opacity:1;fill-rule:nonzero;stroke:#000000;stroke-width:0.1865291;stroke-linecap:butt;stroke-linejoin:miter;stroke-miterlimit:10;stroke-dasharray:none;stroke-opacity:1"
           d="m 115.57946,276.74276 -0.1307,-0.11795 -0.63118,0.45266 q -0.12432,0.0829 -0.18488,0.0829 -0.0638,0 -0.18171,-0.0829 l -0.63436,-0.45266 -0.11795,0.11795 0.72681,0.77781 q 0.1307,0.13707 0.21358,0.13707 0.0797,0 0.21677,-0.13707 z"
           id="path6082" />
        <path
           inkscape:connector-curvature="0"
           id="path1453"
           style="font-style:normal;font-variant:normal;font-weight:bold;font-stretch:normal;font-size:10.58333302px;line-height:1.25;font-family:'Utopia Semibold';-inkscape-font-specification:'Utopia Semibold, Bold';font-variant-ligatures:normal;font-variant-caps:normal;font-variant-numeric:normal;font-feature-settings:normal;text-align:start;letter-spacing:0px;word-spacing:0px;writing-mode:lr-tb;text-anchor:start;fill:#231f20;fill-opacity:1;stroke:none;stroke-width:0.17291816"
           d="m 125.85817,279.42496 h -0.77469 v -0.8715 h -0.33199 l -0.54642,0.8715 h -0.46342 v 0.31817 h 0.43575 v 2.29636 c 0,0.65708 0.49109,0.85767 0.82309,0.85767 0.31126,0 0.7055,-0.15216 1.02368,-0.35276 l -0.0691,-0.18674 c -0.12449,0.0485 -0.26975,0.076 -0.42883,0.076 -0.249,0 -0.44269,-0.18675 -0.44269,-0.65709 v -2.03351 h 0.7747 z" />
        <path
           inkscape:connector-curvature="0"
           id="path1455"
           style="font-style:normal;font-variant:normal;font-weight:bold;font-stretch:normal;font-size:10.58333302px;line-height:1.25;font-family:'Utopia Semibold';-inkscape-font-specification:'Utopia Semibold, Bold';font-variant-ligatures:normal;font-variant-caps:normal;font-variant-numeric:normal;font-feature-settings:normal;text-align:start;letter-spacing:0px;word-spacing:0px;writing-mode:lr-tb;text-anchor:start;fill:#231f20;fill-opacity:1;stroke:none;stroke-width:0.15860087"
           d="m 129.946,283.88205 c 0.27914,0 0.56461,-0.0572 0.84375,-0.15861 0.56462,-0.20935 0.72956,-0.72322 0.72956,-1.45277 v -3.03245 l -0.0445,-0.0381 -1.17999,0.17764 v 0.203 l 0.22839,0.0317 c 0.12053,0.019 0.16493,0.0634 0.16493,0.30452 v 2.26481 c 0,0.57097 -0.0761,0.97064 -0.21568,1.17999 -0.12054,0.17764 -0.29817,0.2728 -0.55194,0.34258 z m 1.13558,-5.06254 c 0.30451,0 0.50752,-0.22204 0.51386,-0.49484 0,-0.27279 -0.19666,-0.49482 -0.51386,-0.49482 -0.31085,0 -0.50753,0.22203 -0.50753,0.49482 0,0.2728 0.19668,0.49484 0.50753,0.49484 z" />
        <g
           id="g188"
           transform="matrix(0.35277777,0,0,-0.35277777,81.319992,282.54438)">
          <path
             d="M 0,0 1.2,0.1 C 1.92,0.16 2.02,0.42 2.02,1.18 V 12.303 H 1.08 c -2.02,0 -2.34,-0.701 -2.861,-2.762 h -0.7 v 3.602 H 9.282 V 9.541 h -0.7 c -0.52,2.061 -0.841,2.762 -2.861,2.762 H 4.781 V 1.18 c 0,-0.76 0.1,-1.02 0.82,-1.08 L 6.801,0 V -0.701 H 0"
             style="fill:#231f20;fill-opacity:1;fill-rule:nonzero;stroke:none"
             id="path190"
             inkscape:connector-curvature="0" />
        </g>
        <g
           id="g192"
           transform="matrix(0.35277777,0,0,-0.35277777,84.474531,282.29744)">
          <path
             d="m 0,0 c 0,0.961 0.66,1.66 1.641,1.66 1,0 1.62,-0.699 1.62,-1.66 C 3.241,-0.96 2.641,-1.641 1.641,-1.641 0.66,-1.641 0,-0.96 0,0"
             style="fill:#231f20;fill-opacity:1;fill-rule:nonzero;stroke:none"
             id="path194"
             inkscape:connector-curvature="0" />
        </g>
        <g
           id="g196"
           transform="matrix(0.35277777,0,0,-0.35277777,87.284053,283.39105)">
          <path
             d="m 0,0 c 0.7,0.219 1.22,0.52 1.66,1.02 0.461,0.54 0.78,1.66 0.78,3.541 v 9.082 c 0,1.06 -0.12,1.12 -1.66,1.199 v 0.701 H 6.861 V 14.842 C 5.321,14.763 5.201,14.703 5.201,13.643 V 4.58 C 5.201,2.52 4.781,0.84 3.181,0.08 2.22,-0.381 1.06,-0.561 0.1,-0.58"
             style="fill:#231f20;fill-opacity:1;fill-rule:nonzero;stroke:none"
             id="path198"
             inkscape:connector-curvature="0" />
        </g>
        <g
           id="g200"
           transform="matrix(0.35277777,0,0,-0.35277777,90.282664,282.29744)">
          <path
             d="m 0,0 c 0,0.961 0.66,1.66 1.641,1.66 1,0 1.62,-0.699 1.62,-1.66 C 3.241,-0.96 2.641,-1.641 1.641,-1.641 0.66,-1.641 0,-0.96 0,0"
             style="fill:#231f20;fill-opacity:1;fill-rule:nonzero;stroke:none"
             id="path202"
             inkscape:connector-curvature="0" />
        </g>
        <g
           id="g204"
           transform="matrix(0.35277777,0,0,-0.35277777,96.197336,279.21345)">
          <path
             d="m 0,0 c -0.48,2.24 -1.62,3.16 -2.98,3.16 -1.421,0 -2.301,-0.899 -2.301,-2.22 0,-1.46 1.48,-2.18 2.781,-2.7 L -1.9,-2 c 1.88,-0.761 3.481,-1.881 3.481,-4.182 0,-2.16 -1.261,-4.24 -5.122,-4.26 -1.34,0 -3.2,0.32 -4.181,1.22 l -0.259,3.441 h 0.7 c 0.679,-2.401 2.1,-3.821 3.74,-3.821 1.5,0 2.481,0.821 2.481,2.38 0,1.441 -1.001,2.281 -2.38,2.841 l -0.441,0.18 c -1.9,0.74 -3.901,1.881 -3.901,4.201 0,2.301 1.581,4.001 4.862,4.001 1.22,0 2.68,-0.28 3.6,-0.88 L 0.68,0"
             style="fill:#231f20;fill-opacity:1;fill-rule:nonzero;stroke:none"
             id="path206"
             inkscape:connector-curvature="0" />
        </g>
        <g
           id="g208"
           transform="matrix(0.35277777,0,0,-0.35277777,99.87328,281.06236)">
          <path
             d="M 0,0 C 0,2.7 -0.68,4.302 -2.24,4.302 -3.781,4.302 -4.461,2.7 -4.461,0 c 0,-2.7 0.68,-4.301 2.221,-4.301 C -0.68,-4.301 0,-2.7 0,0 m -7.261,0 c 0,3.221 1.54,5.142 5.021,5.142 3.5,0 5.041,-1.921 5.041,-5.142 0,-3.221 -1.541,-5.142 -5.041,-5.142 -3.481,0 -5.021,1.921 -5.021,5.142"
             style="fill:#231f20;fill-opacity:1;fill-rule:nonzero;stroke:none"
             id="path210"
             inkscape:connector-curvature="0" />
        </g>
        <g
           id="g212"
           transform="matrix(0.35277777,0,0,-0.35277777,101.75676,278.35267)">
          <path
             d="m 0,0 c 0,0.78 -0.14,0.921 -0.54,0.98 l -0.72,0.121 v 0.64 l 3.74,0.52 0.141,-0.12 v -9.402 h 0.04 c 0.9,1.34 1.9,2.76 2.86,3.901 0.36,0.46 0.701,0.58 1.181,0.58 h 2.62 v -0.6 c -0.78,-0.141 -1.5,-0.4 -2.08,-0.801 -0.66,-0.46 -1.801,-1.541 -2.421,-2.201 0.98,-1.5 2.281,-3.14 3.601,-4.58 0.56,-0.621 1,-0.881 1.4,-1.041 v -0.58 h -1.7 c -1.181,0 -1.92,0.261 -2.661,1.101 -0.72,0.82 -2,2.56 -2.8,3.981 h -0.04 v -3.342 c 0,-0.899 0.14,-0.979 1.38,-1.039 v -0.701 H -1.38 v 0.701 c 1.24,0.06 1.38,0.14 1.38,1.039"
             style="fill:#231f20;fill-opacity:1;fill-rule:nonzero;stroke:none"
             id="path214"
             inkscape:connector-curvature="0" />
        </g>
        <g
           id="g216"
           transform="matrix(0.35277777,0,0,-0.35277777,107.95189,281.06236)">
          <path
             d="M 0,0 C 0,2.7 -0.68,4.302 -2.24,4.302 -3.78,4.302 -4.461,2.7 -4.461,0 c 0,-2.7 0.681,-4.301 2.221,-4.301 C -0.68,-4.301 0,-2.7 0,0 m -7.261,0 c 0,3.221 1.54,5.142 5.021,5.142 3.501,0 5.041,-1.921 5.041,-5.142 0,-3.221 -1.54,-5.142 -5.041,-5.142 -3.481,0 -5.021,1.921 -5.021,5.142"
             style="fill:#231f20;fill-opacity:1;fill-rule:nonzero;stroke:none"
             id="path218"
             inkscape:connector-curvature="0" />
        </g>
        <g
           id="g220"
           transform="matrix(0.35277777,0,0,-0.35277777,110.75965,282.17749)">
          <path
             d="M 0,0 C 0,-0.899 0.14,-0.979 1.381,-1.039 V -1.74 h -5.382 v 0.701 c 1.24,0.06 1.381,0.14 1.381,1.039 v 10.843 c 0,0.78 -0.141,0.921 -0.54,0.98 l -0.721,0.12 v 0.641 L -0.14,13.104 0,12.983"
             style="fill:#231f20;fill-opacity:1;fill-rule:nonzero;stroke:none"
             id="path222"
             inkscape:connector-curvature="0" />
        </g>
        <g
           id="g312"
           transform="matrix(0.35277777,0,0,-0.35277777,134.95555,281.08352)">
          <path
             d="m 0,0 c 0,2.701 -0.681,4.301 -2.241,4.301 -1.54,0 -2.22,-1.6 -2.22,-4.301 0,-2.7 0.68,-4.301 2.22,-4.301 C -0.681,-4.301 0,-2.7 0,0 m -7.262,0 c 0,3.221 1.54,5.141 5.021,5.141 3.501,0 5.042,-1.92 5.042,-5.141 0,-3.221 -1.541,-5.141 -5.042,-5.141 -3.481,0 -5.021,1.92 -5.021,5.141"
             style="fill:#231f20;fill-opacity:1;fill-rule:nonzero;stroke:none"
             id="path314"
             inkscape:connector-curvature="0" />
        </g>
        <g
           id="g316"
           transform="matrix(0.35277777,0,0,-0.35277777,136.99461,281.37986)">
          <path
             d="m 0,0 c -0.479,1.34 -0.939,2.62 -1.46,3.92 -0.28,0.681 -0.52,0.82 -1.36,0.881 v 0.7 h 5.021 v -0.7 L 1.4,4.701 C 1.021,4.66 0.98,4.5 1.101,4.121 1.24,3.74 2.021,1.48 2.161,1.08 l 1.06,-3.041 h 0.06 l 1.14,3.301 c 0.36,1.02 0.66,1.98 0.86,2.74 0.101,0.36 0.04,0.58 -0.319,0.621 l -0.9,0.1 v 0.7 h 4.02 v -0.7 C 7.222,4.761 7.002,4.641 6.682,3.94 6.361,3.24 5.781,1.98 5.222,0.46 L 3.481,-4.301 h -1.92"
             style="fill:#231f20;fill-opacity:1;fill-rule:nonzero;stroke:none"
             id="path318"
             inkscape:connector-curvature="0" />
        </g>
        <g
           id="g320"
           transform="matrix(0.35277777,0,0,-0.35277777,140.26874,278.38054)">
          <path
             d="m 0,0 c 0,0.859 0.62,1.561 1.601,1.561 1,0 1.62,-0.702 1.62,-1.561 C 3.2,-0.861 2.561,-1.561 1.601,-1.561 0.62,-1.561 0,-0.861 0,0 m 2.98,-11.063 c 0,-0.9 0.14,-0.98 1.38,-1.041 v -0.699 h -5.381 v 0.699 c 1.241,0.061 1.38,0.141 1.38,1.041 v 6.042 c 0,0.759 -0.139,0.9 -0.519,0.959 l -0.721,0.101 v 0.64 l 3.722,0.559 0.139,-0.119"
             style="fill:#231f20;fill-opacity:1;fill-rule:nonzero;stroke:none"
             id="path322"
             inkscape:connector-curvature="0" />
        </g>
        <g
           id="g324"
           transform="matrix(0.35277777,0,0,-0.35277777,145.27148,281.84588)">
          <path
             d="m 0,0 c -0.7,-2.361 -2.561,-2.98 -4.142,-2.98 -2.88,0 -4.68,1.679 -4.68,5.06 0,1.58 0.44,2.881 1.28,3.801 0.82,0.9 2.061,1.42 3.7,1.42 1.961,0 3.722,-0.84 3.722,-2.1 0,-0.84 -0.921,-1.16 -1.521,-1.16 -0.48,0 -0.7,0.22 -0.82,0.619 -0.36,1.161 -0.78,1.801 -1.56,1.801 -1.061,0 -2,-1.12 -2,-3.961 0,-2.66 1,-4.141 2.68,-4.141 1.24,0 2.021,0.58 2.681,1.941"
             style="fill:#231f20;fill-opacity:1;fill-rule:nonzero;stroke:none"
             id="path326"
             inkscape:connector-curvature="0" />
        </g>
        <g
           id="g328"
           transform="matrix(0.35277777,0,0,-0.35277777,147.67742,280.69542)">
          <path
             d="M 0,0 C 0.5,0 0.64,0.14 0.64,0.66 0.64,1.54 0.44,3.2 -1,3.2 -2.581,3.2 -2.921,1.22 -2.921,0 Z m 3.28,-3.36 c -0.639,-1.702 -1.88,-2.881 -4.2,-2.881 -3.501,-0.021 -4.821,2.22 -4.821,5.121 0,1.4 0.36,2.7 1.16,3.641 0.8,0.939 2,1.519 3.641,1.519 4.081,0 4.361,-2.98 4.361,-4.1 0,-0.66 -0.36,-0.82 -0.981,-0.82 h -5.38 c 0,-2.101 0.599,-4.021 2.78,-4.021 1.36,0 2.181,0.759 2.761,1.92"
             style="fill:#231f20;fill-opacity:1;fill-rule:nonzero;stroke:none"
             id="path330"
             inkscape:connector-curvature="0" />
        </g>
        <g
           id="g336"
           transform="matrix(0.35277777,0,0,-0.35277777,128.40749,280.83658)">
          <path
             d="m 0,0 c -0.46,-0.239 -1.221,-0.5 -1.96,-0.86 -0.801,-0.38 -1.161,-0.821 -1.161,-1.781 0,-1.12 0.66,-1.82 1.6,-1.82 0.621,0 1.501,0.341 1.521,1.601 z m 4.261,-5.241 c -0.7,-0.3 -1.821,-0.6 -2.741,-0.6 -0.88,0 -1.2,0.52 -1.48,1.18 -0.68,-0.46 -1.641,-1.18 -2.861,-1.18 -1.96,0 -3,1.36 -3,2.881 0,1.119 0.5,1.96 2.1,2.481 C -2.401,-0.06 -0.94,0.36 0,0.9 V 1.94 C 0,3.241 -0.7,3.601 -1.34,3.601 -2,3.601 -2.701,3.241 -3.221,1.62 -3.361,1.181 -3.581,0.9 -4.001,0.9 c -0.44,0 -1.52,0.34 -1.52,1.14 0,1.24 1.78,2.4 4.46,2.4 3.341,0 3.602,-1.599 3.602,-2.839 v -4.602 c 0,-1.22 0.359,-1.5 0.66,-1.58 0.299,-0.08 0.699,-0.1 0.98,-0.06"
             style="fill:#231f20;fill-opacity:1;fill-rule:nonzero;stroke:none"
             id="path338"
             inkscape:connector-curvature="0" />
        </g>
        <g
           id="g356"
           transform="matrix(0.35277777,0,0,-0.35277777,118.87453,280.69542)">
          <path
             d="M 0,0 C 0.5,0 0.64,0.14 0.64,0.66 0.64,1.54 0.44,3.2 -1,3.2 -2.581,3.2 -2.921,1.22 -2.921,0 Z m 3.28,-3.36 c -0.639,-1.702 -1.88,-2.881 -4.2,-2.881 -3.501,-0.021 -4.821,2.22 -4.821,5.121 0,1.4 0.36,2.7 1.16,3.641 0.8,0.939 2,1.519 3.641,1.519 4.081,0 4.361,-2.98 4.361,-4.1 0,-0.66 -0.36,-0.82 -0.981,-0.82 h -5.38 c 0,-2.101 0.599,-4.021 2.78,-4.021 1.36,0 2.181,0.759 2.761,1.92"
             style="fill:#231f20;fill-opacity:1;fill-rule:nonzero;stroke:none"
             id="path358"
             inkscape:connector-curvature="0" />
        </g>
        <g
           transform="matrix(0.35277777,0,0,-0.35277777,115.7766,279.21345)"
           id="g6130">
          <path
             inkscape:connector-curvature="0"
             id="path6128"
             style="fill:#231f20;fill-opacity:1;fill-rule:nonzero;stroke:none"
             d="m 0,0 c -0.48,2.24 -1.62,3.16 -2.98,3.16 -1.421,0 -2.301,-0.899 -2.301,-2.22 0,-1.46 1.48,-2.18 2.781,-2.7 L -1.9,-2 c 1.88,-0.761 3.481,-1.881 3.481,-4.182 0,-2.16 -1.261,-4.24 -5.122,-4.26 -1.34,0 -3.2,0.32 -4.181,1.22 l -0.259,3.441 h 0.7 c 0.679,-2.401 2.1,-3.821 3.74,-3.821 1.5,0 2.481,0.821 2.481,2.38 0,1.441 -1.001,2.281 -2.38,2.841 l -0.441,0.18 c -1.9,0.74 -3.901,1.881 -3.901,4.201 0,2.301 1.581,4.001 4.862,4.001 1.22,0 2.68,-0.28 3.6,-0.88 L 0.68,0" />
        </g>
        <g
           id="g6266"
           transform="matrix(0.35277777,0,0,-0.35277777,122.77283,280.41289)"
           inkscape:transform-center-x="-37.608631"
           inkscape:transform-center-y="15.497024">
          <path
             d="m 0,0 c -0.301,1.42 -1.141,2.401 -2.241,2.401 -0.9,0 -1.46,-0.56 -1.481,-1.32 0,-0.941 1.021,-1.381 2.061,-1.741 1.921,-0.68 3.001,-1.5 3.001,-3.241 0,-1.94 -1.521,-3.141 -3.961,-3.141 -1.14,0 -2.58,0.281 -3.301,0.941 l -0.22,2.88 h 0.68 c 0.481,-1.68 1.481,-2.98 2.921,-2.98 0.94,0 1.54,0.52 1.54,1.38 0,1.08 -1.06,1.64 -1.98,1.961 -1.701,0.58 -3.04,1.44 -3.04,3.02 0,1.981 1.5,3.081 3.84,3.081 1,0 2.101,-0.2 2.861,-0.68 L 0.68,0"
             style="fill:#231f20;fill-opacity:1;fill-rule:nonzero;stroke:none"
             id="path6268"
             inkscape:connector-curvature="0" />
        </g>
      </g>
    </g>
  </g>
</svg>
